<?xml version="1.0" encoding="UTF-8" ?>
<!DOCTYPE svg PUBLIC "-//W3C//DTD SVG 1.1//EN" "http://www.w3.org/Graphics/SVG/1.1/DTD/svg11.dtd">
<svg width="248pt" height="315pt" viewBox="0 0 248 315" version="1.1" xmlns="http://www.w3.org/2000/svg">
<g id="#4b2d20ff">
<path fill="#4b2d20" opacity="1.00" d=" M 137.40 0.00 L 153.55 0.00 L 154.00 0.89 C 155.56 3.70 160.47 1.28 163.23 1.75 C 177.44 4.09 192.03 7.61 204.03 15.95 C 219.66 25.47 229.61 41.94 234.89 59.10 C 240.01 69.20 246.90 79.13 247.05 90.94 C 247.03 95.31 247.03 99.69 247.04 104.06 C 245.70 115.16 243.53 126.64 237.01 136.00 C 235.34 139.91 229.61 140.54 228.93 144.98 C 221.89 172.98 213.85 200.72 206.65 228.68 C 204.54 235.46 209.07 242.13 206.78 248.88 C 204.72 258.22 201.50 267.71 194.77 274.74 C 190.50 277.56 184.32 277.63 181.56 282.61 C 164.73 300.72 141.03 313.43 116.01 314.04 C 110.99 313.99 105.98 314.00 100.97 314.02 C 100.28 313.97 98.89 313.86 98.20 313.81 C 94.81 312.68 91.32 311.74 87.73 312.26 C 64.04 308.55 41.19 296.82 25.92 278.09 C 17.36 266.85 11.68 253.20 9.88 239.20 C 10.87 237.43 11.66 235.21 13.87 234.66 L 14.76 235.06 C 15.53 238.67 16.52 242.22 17.60 245.76 C 17.75 248.15 18.29 250.50 19.06 252.77 C 18.61 257.29 22.26 260.65 23.31 264.83 C 24.52 267.11 24.84 270.89 28.08 271.04 C 31.52 276.83 37.37 280.30 41.59 285.41 C 49.58 292.48 59.57 295.99 68.71 301.19 C 72.17 301.75 75.48 302.85 78.67 304.28 C 82.62 307.34 88.10 306.62 92.68 308.28 C 107.03 309.87 121.84 309.55 135.87 305.77 C 140.03 304.16 144.24 302.68 148.55 301.53 C 149.10 300.73 149.64 299.93 150.17 299.11 C 152.41 296.90 154.80 294.78 157.84 293.75 C 167.69 288.39 175.32 280.28 182.81 272.13 C 183.75 276.49 188.32 273.52 190.44 271.83 C 190.21 269.31 191.66 267.21 192.67 265.03 C 193.83 265.78 195.17 266.55 195.16 264.49 C 196.91 260.78 198.86 257.14 200.22 253.26 C 202.41 246.77 203.53 239.07 200.18 232.83 C 200.14 232.49 200.06 231.80 200.02 231.46 C 201.64 230.53 201.17 228.48 200.84 227.01 C 201.82 224.13 202.82 221.24 203.29 218.23 C 204.75 214.93 205.46 211.40 205.96 207.86 C 207.26 204.71 207.74 201.29 209.03 198.14 C 210.66 195.67 211.21 192.78 210.95 189.86 C 216.13 170.97 221.36 152.00 226.02 132.98 L 226.95 133.06 C 227.17 133.68 227.62 134.91 227.84 135.52 C 227.96 135.90 228.20 136.67 228.32 137.05 C 232.40 134.01 235.22 129.70 236.86 124.94 C 238.60 118.79 239.93 112.50 241.20 106.24 C 241.79 103.11 242.04 99.95 241.87 96.77 C 242.56 85.98 237.28 76.11 232.05 67.07 C 230.46 61.71 227.88 56.71 226.67 51.22 C 222.05 44.14 218.05 36.68 213.48 29.58 C 210.93 28.19 208.61 26.46 206.22 24.83 C 200.40 22.35 195.71 15.64 188.88 16.15 C 181.97 11.72 174.10 9.66 166.19 7.83 C 159.96 5.60 153.28 5.89 146.77 6.18 C 145.59 6.16 144.41 6.17 143.23 6.20 C 138.13 6.67 132.15 4.29 127.75 7.81 C 116.34 10.14 105.24 14.75 95.97 21.86 C 93.27 24.04 90.40 26.00 86.98 26.83 C 73.10 30.32 61.38 40.57 55.82 53.73 C 54.08 55.50 52.73 57.70 53.18 60.28 C 52.63 61.58 52.04 62.86 51.44 64.15 C 50.54 62.72 49.22 61.48 47.41 62.18 C 46.86 63.94 46.12 65.64 44.82 66.98 C 46.37 58.32 50.75 50.59 55.11 43.07 C 60.34 33.38 69.90 26.84 80.04 23.08 C 90.12 19.55 97.87 11.53 107.90 7.84 C 117.22 3.52 127.34 1.68 137.40 0.00 Z" />
</g>
<g id="#765a4cff">
<path fill="#765a4c" opacity="1.00" d=" M 154.00 0.89 C 157.09 1.04 160.15 1.34 163.23 1.75 C 160.47 1.28 155.56 3.70 154.00 0.89 Z" />
</g>
<g id="#7b442bff">
<path fill="#7b442b" opacity="1.00" d=" M 127.75 7.81 C 132.15 4.29 138.13 6.67 143.23 6.20 C 140.76 6.56 138.28 6.86 135.80 7.12 C 133.11 7.25 130.45 7.79 127.75 7.81 Z" />
</g>
<g id="#a25d3eff">
<path fill="#a25d3e" opacity="1.00" d=" M 143.23 6.20 C 144.41 6.17 145.59 6.16 146.77 6.18 C 153.22 6.97 159.73 7.18 166.19 7.83 C 174.10 9.66 181.97 11.72 188.88 16.15 L 189.06 17.01 C 188.89 19.09 190.55 20.55 191.88 21.90 C 193.10 27.05 196.56 31.69 196.00 37.19 C 192.48 36.56 189.52 34.41 186.53 32.59 C 177.08 30.74 168.85 25.00 159.00 24.86 C 148.89 21.66 138.10 22.77 127.78 20.71 C 129.16 20.36 130.56 20.06 131.95 19.72 C 132.35 17.21 128.88 15.93 130.11 13.22 C 132.71 11.30 135.56 9.37 139.06 9.77 C 139.24 7.82 137.08 7.82 135.80 7.12 C 138.28 6.86 140.76 6.56 143.23 6.20 Z" />
</g>
<g id="#7b452dff">
<path fill="#7b452d" opacity="1.00" d=" M 146.77 6.18 C 153.28 5.89 159.96 5.60 166.19 7.83 C 159.73 7.18 153.22 6.97 146.77 6.18 Z" />
</g>
<g id="#ad6542ff">
<path fill="#ad6542" opacity="1.00" d=" M 127.75 7.81 C 130.45 7.79 133.11 7.25 135.80 7.12 C 137.08 7.82 139.24 7.82 139.06 9.77 C 135.56 9.37 132.71 11.30 130.11 13.22 C 128.88 15.93 132.35 17.21 131.95 19.72 C 130.56 20.06 129.16 20.36 127.78 20.71 C 120.04 21.25 111.08 24.33 103.97 20.22 C 101.22 21.58 95.85 21.77 96.99 26.03 C 100.03 26.67 102.16 23.90 105.09 23.93 C 102.80 29.50 99.98 34.94 98.79 40.89 C 98.57 43.08 94.54 43.17 95.45 45.69 C 96.27 47.77 94.30 48.92 93.18 50.34 L 92.60 51.00 C 87.40 50.58 82.15 50.61 76.98 49.85 C 76.81 45.96 80.89 43.57 82.07 40.10 C 84.47 36.41 84.88 29.85 90.35 29.40 C 94.23 29.14 94.67 24.70 95.97 21.86 C 105.24 14.75 116.34 10.14 127.75 7.81 Z" />
</g>
<g id="#683022ff">
<path fill="#683022" opacity="1.00" d=" M 188.88 16.15 C 195.71 15.64 200.40 22.35 206.22 24.83 C 205.88 25.80 205.57 26.77 205.27 27.75 C 210.73 28.22 213.11 34.13 216.06 37.96 C 219.10 41.65 221.06 46.08 222.47 50.62 C 225.35 52.60 227.70 55.45 226.94 59.21 C 224.03 55.93 220.76 52.97 216.73 51.13 C 215.58 50.06 214.43 48.97 213.27 47.91 C 212.77 46.04 210.82 45.51 209.31 44.68 C 205.28 42.92 202.17 39.71 198.27 37.72 C 197.98 36.49 197.39 34.04 197.10 32.81 C 196.25 28.80 194.97 24.77 191.88 21.90 C 192.71 19.63 191.14 17.70 189.06 17.01 L 188.88 16.15 Z" />
</g>
<g id="#8a4b33ff">
<path fill="#8a4b33" opacity="1.00" d=" M 189.06 17.01 C 191.14 17.70 192.71 19.63 191.88 21.90 C 190.55 20.55 188.89 19.09 189.06 17.01 Z" />
</g>
<g id="#97553bff">
<path fill="#97553b" opacity="1.00" d=" M 96.99 26.03 C 95.85 21.77 101.22 21.58 103.97 20.22 C 111.08 24.33 120.04 21.25 127.78 20.71 C 138.10 22.77 148.89 21.66 159.00 24.86 C 168.85 25.00 177.08 30.74 186.53 32.59 C 189.52 34.41 192.48 36.56 196.00 37.19 C 196.87 40.30 193.66 38.62 192.16 37.93 C 182.80 33.88 173.07 30.70 163.32 27.74 C 154.14 26.95 145.48 23.15 136.11 23.73 C 128.11 20.93 119.53 23.27 111.32 23.31 C 108.94 24.11 111.68 26.40 111.75 28.01 C 111.37 33.81 108.93 39.76 104.95 44.01 C 105.90 39.67 107.99 35.76 109.67 31.70 C 111.16 29.56 106.67 27.61 106.45 30.37 C 104.64 35.53 101.71 40.42 100.95 45.88 C 101.68 45.91 103.14 45.97 103.87 46.00 C 103.37 48.47 101.14 47.45 99.35 47.43 C 97.62 49.06 95.60 50.18 93.18 50.34 C 94.30 48.92 96.27 47.77 95.45 45.69 C 94.54 43.17 98.57 43.08 98.79 40.89 C 99.98 34.94 102.80 29.50 105.09 23.93 C 102.16 23.90 100.03 26.67 96.99 26.03 Z" />
</g>
<g id="#93533cff">
<path fill="#93533c" opacity="1.00" d=" M 86.98 26.83 C 90.40 26.00 93.27 24.04 95.97 21.86 C 94.67 24.70 94.23 29.14 90.35 29.40 C 84.88 29.85 84.47 36.41 82.07 40.10 C 80.89 43.57 76.81 45.96 76.98 49.85 C 82.15 50.61 87.40 50.58 92.60 51.00 L 93.13 51.90 C 88.17 52.67 81.87 52.36 78.86 57.02 C 77.98 57.46 77.09 57.88 76.20 58.27 C 75.38 58.17 73.73 57.97 72.91 57.87 C 73.49 56.21 74.65 54.79 75.04 53.06 C 74.17 51.58 72.79 50.45 72.02 48.91 C 71.50 44.89 77.77 46.17 79.00 43.01 C 81.62 37.58 83.54 31.78 86.98 26.83 Z" />
<path fill="#93533c" opacity="1.00" d=" M 38.72 189.76 C 39.23 184.14 41.30 178.78 43.99 173.87 C 43.96 177.41 42.48 180.68 41.95 184.14 C 41.05 187.37 39.41 190.41 38.99 193.76 C 39.46 193.88 40.42 194.11 40.89 194.22 L 41.14 195.18 L 40.22 195.26 C 38.54 195.15 36.86 195.08 35.20 194.79 C 32.32 192.52 37.78 191.71 38.72 189.76 Z" />
</g>
<g id="#884a3cff">
<path fill="#884a3c" opacity="1.00" d=" M 111.32 23.31 C 119.53 23.27 128.11 20.93 136.11 23.73 C 145.48 23.15 154.14 26.95 163.32 27.74 C 173.07 30.70 182.80 33.88 192.16 37.93 C 193.66 38.62 196.87 40.30 196.00 37.19 C 196.56 31.69 193.10 27.05 191.88 21.90 C 194.97 24.77 196.25 28.80 197.10 32.81 C 196.92 35.42 196.97 38.02 197.25 40.60 C 202.90 42.34 207.38 47.20 213.27 47.91 C 214.43 48.97 215.58 50.06 216.73 51.13 C 217.29 52.53 218.41 53.55 219.60 54.43 C 222.40 56.35 223.58 60.13 227.17 60.92 C 228.96 62.83 230.41 65.03 232.05 67.07 C 237.28 76.11 242.56 85.98 241.87 96.77 C 241.26 99.89 240.95 103.06 241.20 106.24 C 239.93 112.50 238.60 118.79 236.86 124.94 C 236.13 124.90 234.68 124.83 233.95 124.79 C 233.73 117.34 231.87 109.70 226.89 103.98 C 218.81 89.33 205.90 77.66 190.93 70.26 C 190.06 67.69 187.27 67.14 184.88 66.98 C 168.98 58.03 150.90 54.44 133.23 50.78 C 124.49 49.52 115.47 49.56 106.72 50.66 C 104.49 51.04 102.29 51.52 100.11 52.07 C 98.13 52.07 96.15 52.03 94.18 52.01 L 93.13 51.90 L 92.60 51.00 L 93.18 50.34 C 95.60 50.18 97.62 49.06 99.35 47.43 C 101.14 47.45 103.37 48.47 103.87 46.00 C 104.14 45.50 104.68 44.51 104.95 44.01 C 108.93 39.76 111.37 33.81 111.75 28.01 C 111.68 26.40 108.94 24.11 111.32 23.31 Z" />
</g>
<g id="#5b2d1fff">
<path fill="#5b2d1f" opacity="1.00" d=" M 206.22 24.83 C 208.61 26.46 210.93 28.19 213.48 29.58 C 218.05 36.68 222.05 44.14 226.67 51.22 C 227.88 56.71 230.46 61.71 232.05 67.07 C 230.41 65.03 228.96 62.83 227.17 60.92 C 227.11 60.49 227.00 59.64 226.94 59.21 C 227.70 55.45 225.35 52.60 222.47 50.62 C 221.06 46.08 219.10 41.65 216.06 37.96 C 213.11 34.13 210.73 28.22 205.27 27.75 C 205.57 26.77 205.88 25.80 206.22 24.83 Z" />
</g>
<g id="#854a3bff">
<path fill="#854a3b" opacity="1.00" d=" M 55.82 53.73 C 61.38 40.57 73.10 30.32 86.98 26.83 C 83.54 31.78 81.62 37.58 79.00 43.01 C 77.77 46.17 71.50 44.89 72.02 48.91 C 72.79 50.45 74.17 51.58 75.04 53.06 C 74.65 54.79 73.49 56.21 72.91 57.87 C 73.73 57.97 75.38 58.17 76.20 58.27 C 67.78 62.66 56.69 65.14 51.98 74.21 C 49.37 74.38 50.07 71.46 49.60 69.76 C 50.18 67.88 50.83 66.02 51.44 64.15 C 52.04 62.86 52.63 61.58 53.18 60.28 C 55.09 58.64 55.41 56.07 55.82 53.73 Z" />
</g>
<g id="#a86243ff">
<path fill="#a86243" opacity="1.00" d=" M 106.45 30.37 C 106.67 27.61 111.16 29.56 109.67 31.70 C 107.99 35.76 105.90 39.67 104.95 44.01 C 104.68 44.51 104.14 45.50 103.87 46.00 C 103.14 45.97 101.68 45.91 100.95 45.88 C 101.71 40.42 104.64 35.53 106.45 30.37 Z" />
</g>
<g id="#773d2eff">
<path fill="#773d2e" opacity="1.00" d=" M 197.10 32.81 C 197.39 34.04 197.98 36.49 198.27 37.72 C 202.17 39.71 205.28 42.92 209.31 44.68 C 210.82 45.51 212.77 46.04 213.27 47.91 C 207.38 47.20 202.90 42.34 197.25 40.60 C 196.97 38.02 196.92 35.42 197.10 32.81 Z" />
</g>
<g id="#6d362eff">
<path fill="#6d362e" opacity="1.00" d=" M 106.72 50.66 C 115.47 49.56 124.49 49.52 133.23 50.78 C 124.40 50.84 115.53 51.49 106.72 50.66 Z" />
</g>
<g id="#4c201bff">
<path fill="#4c201b" opacity="1.00" d=" M 100.11 52.07 C 102.29 51.52 104.49 51.04 106.72 50.66 C 115.53 51.49 124.40 50.84 133.23 50.78 C 150.90 54.44 168.98 58.03 184.88 66.98 C 186.68 68.45 188.53 69.98 190.93 70.26 C 205.90 77.66 218.81 89.33 226.89 103.98 C 224.53 104.27 221.76 104.03 220.17 106.18 C 220.25 107.51 220.56 108.82 220.78 110.14 C 213.14 98.43 201.68 90.36 190.26 82.72 C 187.94 81.24 185.63 79.75 183.05 78.76 C 180.24 77.06 177.24 75.69 174.08 74.79 C 168.45 71.75 162.12 70.25 156.24 67.75 C 151.99 66.17 147.62 64.94 143.27 63.68 C 136.74 61.71 129.89 61.08 123.10 60.89 L 122.20 60.79 C 115.12 59.70 107.81 59.52 100.72 60.65 C 99.24 60.95 96.28 61.56 94.80 61.86 C 93.56 62.18 92.34 62.59 91.10 62.92 C 86.03 63.16 81.19 65.30 76.85 67.81 C 72.40 70.20 68.24 73.17 64.77 76.86 C 63.18 78.34 61.30 79.82 60.93 82.10 C 59.18 84.97 57.58 87.92 55.92 90.84 C 54.39 92.97 53.63 95.49 52.87 97.96 C 50.77 103.97 47.68 109.82 47.13 116.23 C 45.40 121.16 43.96 126.21 41.75 130.96 C 40.08 132.55 39.47 134.76 39.99 137.01 C 39.02 138.28 38.36 139.74 37.66 141.16 C 36.58 142.94 35.53 144.95 36.31 147.07 C 34.06 152.71 32.35 158.55 30.10 164.20 C 28.45 165.15 27.55 166.95 27.92 168.85 C 27.52 170.30 27.21 171.77 26.98 173.25 C 17.46 178.47 11.93 188.85 8.81 198.94 C 6.26 199.93 6.64 202.78 7.12 204.96 C 6.42 207.07 4.51 210.90 7.74 211.28 C 9.92 214.10 9.81 217.65 10.18 221.07 C 12.25 220.18 13.13 218.05 14.80 216.72 C 14.50 222.70 14.08 228.67 13.87 234.66 C 11.66 235.21 10.87 237.43 9.88 239.20 C 9.87 237.41 9.86 233.81 9.85 232.02 C 9.80 229.81 10.72 227.85 11.81 226.00 C 10.11 224.02 8.57 226.41 7.03 227.32 C 5.51 225.98 4.06 224.58 2.77 223.03 C 3.41 220.84 2.40 218.71 1.12 216.99 C 1.05 214.02 1.00 211.09 0.99 208.13 L 1.13 207.24 C 2.62 204.63 3.32 201.71 2.72 198.72 C 4.80 190.22 9.44 182.61 14.64 175.67 C 16.91 171.91 22.15 170.78 23.28 166.22 C 32.14 141.66 40.53 116.92 49.33 92.34 C 50.21 90.77 48.39 89.53 47.80 88.20 C 43.23 82.10 42.30 74.11 44.82 66.98 C 46.12 65.64 46.86 63.94 47.41 62.18 C 49.22 61.48 50.54 62.72 51.44 64.15 C 50.83 66.02 50.18 67.88 49.60 69.76 C 48.73 72.98 45.82 78.40 49.90 80.09 C 50.91 78.25 51.42 76.21 51.98 74.21 C 56.69 65.14 67.78 62.66 76.20 58.27 C 77.09 57.88 77.98 57.46 78.86 57.02 C 83.40 57.04 87.40 54.59 91.82 53.92 C 94.67 53.75 97.38 52.86 100.11 52.07 Z" />
</g>
<g id="#7a3c2fff">
<path fill="#7a3c2f" opacity="1.00" d=" M 216.73 51.13 C 220.76 52.97 224.03 55.93 226.94 59.21 C 227.00 59.64 227.11 60.49 227.17 60.92 C 223.58 60.13 222.40 56.35 219.60 54.43 C 218.41 53.55 217.29 52.53 216.73 51.13 Z" />
</g>
<g id="#7b3f36ff">
<path fill="#7b3f36" opacity="1.00" d=" M 78.86 57.02 C 81.87 52.36 88.17 52.67 93.13 51.90 L 94.18 52.01 C 93.39 52.65 92.61 53.28 91.82 53.92 C 87.40 54.59 83.40 57.04 78.86 57.02 Z" />
</g>
<g id="#652c25ff">
<path fill="#652c25" opacity="1.00" d=" M 94.18 52.01 C 96.15 52.03 98.13 52.07 100.11 52.07 C 97.38 52.86 94.67 53.75 91.82 53.92 C 92.61 53.28 93.39 52.65 94.18 52.01 Z" />
</g>
<g id="#6e3d2fff">
<path fill="#6e3d2f" opacity="1.00" d=" M 53.18 60.28 C 52.73 57.70 54.08 55.50 55.82 53.73 C 55.41 56.07 55.09 58.64 53.18 60.28 Z" />
</g>
<g id="#363e4bff">
<path fill="#363e4b" opacity="1.00" d=" M 100.72 60.65 C 107.81 59.52 115.12 59.70 122.20 60.79 C 117.13 60.89 112.07 61.00 107.00 61.04 C 104.90 60.97 102.81 60.83 100.72 60.65 Z" />
</g>
<g id="#23606cff">
<path fill="#23606c" opacity="1.00" d=" M 94.80 61.86 C 96.28 61.56 99.24 60.95 100.72 60.65 C 102.81 60.83 104.90 60.97 107.00 61.04 L 107.00 62.00 C 102.93 61.96 98.86 61.92 94.80 61.86 Z" />
</g>
<g id="#167d97ff">
<path fill="#167d97" opacity="1.00" d=" M 107.00 61.04 C 112.07 61.00 117.13 60.89 122.20 60.79 L 123.10 60.89 L 122.88 61.96 C 122.38 61.97 121.39 61.99 120.90 62.00 C 117.97 61.99 115.06 61.99 112.14 62.05 C 110.42 62.04 108.71 62.03 107.00 62.00 L 107.00 61.04 Z" />
</g>
<g id="#3c4459ff">
<path fill="#3c4459" opacity="1.00" d=" M 123.10 60.89 C 129.89 61.08 136.74 61.71 143.27 63.68 C 141.80 63.85 140.34 64.00 138.87 64.14 L 138.10 63.97 C 133.46 62.52 128.63 62.10 123.80 62.09 L 122.88 61.96 L 123.10 60.89 Z" />
</g>
<g id="#0a9db6ff">
<path fill="#0a9db6" opacity="1.00" d=" M 91.10 62.92 C 92.34 62.59 93.56 62.18 94.80 61.86 C 98.86 61.92 102.93 61.96 107.00 62.00 C 108.71 62.03 110.42 62.04 112.14 62.05 C 111.38 63.00 110.63 63.94 109.87 64.89 C 107.30 65.07 104.78 65.62 102.22 65.85 C 99.89 61.55 94.81 63.60 90.87 63.86 L 91.10 62.92 Z" />
</g>
<g id="#13bed7ff">
<path fill="#13bed7" opacity="1.00" d=" M 112.14 62.05 C 115.06 61.99 117.97 61.99 120.90 62.00 L 121.16 62.84 C 118.04 63.54 114.86 63.92 111.76 64.68 C 111.29 64.73 110.35 64.83 109.87 64.89 C 110.63 63.94 111.38 63.00 112.14 62.05 Z" />
</g>
<g id="#0da1bdff">
<path fill="#0da1bd" opacity="1.00" d=" M 120.90 62.00 C 121.39 61.99 122.38 61.97 122.88 61.96 L 123.80 62.09 C 128.51 63.14 133.29 63.70 138.10 63.97 L 138.87 64.14 C 142.53 65.15 146.24 65.94 149.89 66.99 C 151.68 71.30 156.98 70.23 159.13 74.01 C 157.37 73.48 155.64 72.85 153.93 72.19 C 152.27 71.54 150.63 70.83 148.96 70.18 C 145.42 68.78 141.91 66.90 137.99 66.96 C 133.10 65.93 128.20 64.88 123.16 64.87 C 122.50 64.19 121.83 63.51 121.16 62.84 L 120.90 62.00 Z" />
</g>
<g id="#167791ff">
<path fill="#167791" opacity="1.00" d=" M 123.80 62.09 C 128.63 62.10 133.46 62.52 138.10 63.97 C 133.29 63.70 128.51 63.14 123.80 62.09 Z" />
</g>
<g id="#176c7cff">
<path fill="#176c7c" opacity="1.00" d=" M 76.85 67.81 C 81.19 65.30 86.03 63.16 91.10 62.92 L 90.87 63.86 C 86.79 64.81 82.97 66.61 79.01 67.95 C 78.47 67.91 77.39 67.85 76.85 67.81 Z" />
</g>
<g id="#0abddaff">
<path fill="#0abdda" opacity="1.00" d=" M 90.87 63.86 C 94.81 63.60 99.89 61.55 102.22 65.85 C 101.71 65.89 100.70 65.97 100.20 66.02 C 96.23 65.59 92.30 65.92 88.75 67.74 C 85.31 68.14 82.18 69.69 79.06 71.10 C 78.75 70.83 78.11 70.31 77.79 70.04 C 78.10 69.52 78.70 68.47 79.01 67.95 C 82.97 66.61 86.79 64.81 90.87 63.86 Z" />
</g>
<g id="#2fcde4ff">
<path fill="#2fcde4" opacity="1.00" d=" M 111.76 64.68 C 114.86 63.92 118.04 63.54 121.16 62.84 C 121.83 63.51 122.50 64.19 123.16 64.87 C 122.65 64.90 121.62 64.96 121.10 64.99 C 117.97 64.96 114.86 64.95 111.76 64.68 Z" />
</g>
<g id="#256675ff">
<path fill="#256675" opacity="1.00" d=" M 138.87 64.14 C 140.34 64.00 141.80 63.85 143.27 63.68 C 147.62 64.94 151.99 66.17 156.24 67.75 C 154.11 67.64 152.00 67.30 149.89 66.99 C 146.24 65.94 142.53 65.15 138.87 64.14 Z" />
</g>
<g id="#2cb5d1ff">
<path fill="#2cb5d1" opacity="1.00" d=" M 102.22 65.85 C 104.78 65.62 107.30 65.07 109.87 64.89 C 109.47 69.14 107.59 73.05 107.16 77.26 C 106.55 78.88 105.92 80.49 105.17 82.04 C 100.58 86.51 100.17 93.43 95.88 98.04 C 94.18 97.25 92.44 96.54 90.84 95.54 C 93.76 93.90 92.82 90.62 92.66 87.73 C 93.14 85.32 94.12 83.08 94.88 80.76 C 95.66 79.89 96.45 79.04 97.22 78.17 C 99.63 74.95 103.96 72.87 105.09 68.97 C 102.98 69.42 100.93 70.12 98.91 70.86 C 99.29 69.57 99.66 68.28 99.96 66.97 L 100.20 66.02 C 100.70 65.97 101.71 65.89 102.22 65.85 Z" />
</g>
<g id="#49c6deff">
<path fill="#49c6de" opacity="1.00" d=" M 109.87 64.89 C 110.35 64.83 111.29 64.73 111.76 64.68 C 110.75 68.98 110.62 74.03 107.16 77.26 C 107.59 73.05 109.47 69.14 109.87 64.89 Z" />
</g>
<g id="#65d3e5ff">
<path fill="#65d3e5" opacity="1.00" d=" M 111.76 64.68 C 114.86 64.95 117.97 64.96 121.10 64.99 C 116.63 70.85 116.87 79.09 115.97 86.10 C 118.39 84.29 120.71 82.21 123.83 83.87 C 122.24 85.52 120.54 87.06 118.95 88.71 C 116.66 88.09 113.96 89.60 112.02 87.93 C 112.89 86.57 114.20 85.49 114.86 84.01 C 114.32 82.01 113.62 80.05 112.77 78.17 C 110.95 77.35 110.79 79.03 110.54 80.38 C 112.39 85.18 108.64 84.57 106.37 85.44 C 104.31 88.79 103.22 92.76 100.80 95.87 C 99.99 90.51 105.45 87.26 105.17 82.04 C 105.92 80.49 106.55 78.88 107.16 77.26 C 110.62 74.03 110.75 68.98 111.76 64.68 Z" />
</g>
<g id="#52c1d7ff">
<path fill="#52c1d7" opacity="1.00" d=" M 121.10 64.99 C 121.62 64.96 122.65 64.90 123.16 64.87 C 128.20 64.88 133.10 65.93 137.99 66.96 C 134.97 70.76 141.30 68.67 143.88 69.02 C 142.44 71.48 140.93 74.08 140.93 77.02 C 143.28 77.46 145.26 76.30 147.11 75.05 C 145.93 82.18 146.42 89.78 149.80 96.25 C 152.16 98.95 156.14 100.05 157.37 103.63 C 160.07 105.06 159.47 109.06 162.79 109.52 C 165.21 114.10 160.34 117.55 161.79 121.87 C 159.08 123.75 158.78 127.59 156.14 129.29 C 155.99 127.35 154.38 126.29 153.10 125.08 C 157.57 125.10 152.10 121.36 153.98 119.08 C 155.47 117.90 156.89 116.63 158.28 115.34 C 160.62 114.76 164.34 110.33 160.28 109.92 L 159.32 109.73 C 158.26 109.46 157.20 109.21 156.13 108.99 C 153.98 106.70 152.14 104.17 150.48 101.52 C 147.55 99.56 143.38 97.94 144.53 93.20 C 142.83 89.75 143.35 84.03 138.70 83.16 C 139.51 80.43 140.09 77.63 139.89 74.77 C 140.42 73.18 140.94 71.58 141.06 69.91 C 139.98 70.02 139.02 70.41 138.18 71.08 C 133.31 75.22 128.28 79.25 123.83 83.87 C 120.71 82.21 118.39 84.29 115.97 86.10 C 116.87 79.09 116.63 70.85 121.10 64.99 Z" />
</g>
<g id="#3ac6e4ff">
<path fill="#3ac6e4" opacity="1.00" d=" M 88.75 67.74 C 92.30 65.92 96.23 65.59 100.20 66.02 L 99.96 66.97 C 96.21 67.14 92.50 67.73 88.75 67.74 Z" />
</g>
<g id="#5bd3e6ff">
<path fill="#5bd3e6" opacity="1.00" d=" M 88.75 67.74 C 92.50 67.73 96.21 67.14 99.96 66.97 C 99.66 68.28 99.29 69.57 98.91 70.86 C 98.30 71.52 97.68 72.19 97.06 72.84 C 92.14 75.82 86.03 78.07 82.77 82.90 C 81.52 83.66 80.25 84.40 78.97 85.12 C 77.12 85.20 75.66 86.42 74.08 87.23 C 74.10 86.48 74.14 84.98 74.17 84.23 C 76.64 80.62 77.43 76.22 78.05 71.97 C 78.30 71.75 78.81 71.31 79.06 71.10 C 82.18 69.69 85.31 68.14 88.75 67.74 Z" />
</g>
<g id="#40bad3ff">
<path fill="#40bad3" opacity="1.00" d=" M 137.99 66.96 C 141.91 66.90 145.42 68.78 148.96 70.18 C 148.64 71.35 148.27 72.51 147.98 73.70 C 149.30 73.44 150.61 73.15 151.95 72.98 C 151.52 75.07 150.89 77.11 150.58 79.22 C 152.34 85.24 149.71 93.14 155.34 97.61 C 161.87 100.25 167.91 105.35 167.99 113.06 C 170.14 119.11 164.56 122.81 162.82 127.87 C 162.20 130.17 159.58 130.25 157.77 131.12 C 157.22 130.51 156.67 129.90 156.14 129.29 C 158.78 127.59 159.08 123.75 161.79 121.87 C 160.34 117.55 165.21 114.10 162.79 109.52 C 159.47 109.06 160.07 105.06 157.37 103.63 C 156.14 100.05 152.16 98.95 149.80 96.25 C 146.42 89.78 145.93 82.18 147.11 75.05 C 145.26 76.30 143.28 77.46 140.93 77.02 C 140.93 74.08 142.44 71.48 143.88 69.02 C 141.30 68.67 134.97 70.76 137.99 66.96 Z" />
</g>
<g id="#078aa8ff">
<path fill="#078aa8" opacity="1.00" d=" M 149.89 66.99 C 152.00 67.30 154.11 67.64 156.24 67.75 C 162.12 70.25 168.45 71.75 174.08 74.79 C 175.32 75.91 176.69 76.87 178.12 77.74 C 172.87 77.37 179.00 84.81 181.95 81.10 C 181.73 80.56 181.30 79.47 181.08 78.93 C 181.58 78.88 182.56 78.80 183.05 78.76 C 184.13 80.34 185.65 81.51 187.08 82.75 C 185.49 84.02 184.04 85.47 182.68 86.99 C 175.62 81.37 166.94 78.37 159.13 74.01 C 156.98 70.23 151.68 71.30 149.89 66.99 Z" />
</g>
<g id="#76372dff">
<path fill="#76372d" opacity="1.00" d=" M 184.88 66.98 C 187.27 67.14 190.06 67.69 190.93 70.26 C 188.53 69.98 186.68 68.45 184.88 66.98 Z" />
</g>
<g id="#117f8fff">
<path fill="#117f8f" opacity="1.00" d=" M 64.77 76.86 C 68.24 73.17 72.40 70.20 76.85 67.81 C 77.39 67.85 78.47 67.91 79.01 67.95 C 78.70 68.47 78.10 69.52 77.79 70.04 C 73.07 71.78 68.83 74.63 65.14 78.03 L 64.77 76.86 Z" />
</g>
<g id="#0dcee2ff">
<path fill="#0dcee2" opacity="1.00" d=" M 98.91 70.86 C 100.93 70.12 102.98 69.42 105.09 68.97 C 103.96 72.87 99.63 74.95 97.22 78.17 C 97.37 76.67 97.86 75.12 97.26 73.66 L 97.06 72.84 C 97.68 72.19 98.30 71.52 98.91 70.86 Z" />
</g>
<g id="#633b2cff">
<path fill="#633b2c" opacity="1.00" d=" M 49.90 80.09 C 45.82 78.40 48.73 72.98 49.60 69.76 C 50.07 71.46 49.37 74.38 51.98 74.21 C 51.42 76.21 50.91 78.25 49.90 80.09 Z" />
</g>
<g id="#26b1cfff">
<path fill="#26b1cf" opacity="1.00" d=" M 65.14 78.03 C 68.83 74.63 73.07 71.78 77.79 70.04 C 78.11 70.31 78.75 70.83 79.06 71.10 C 78.81 71.31 78.30 71.75 78.05 71.97 C 77.64 72.33 76.83 73.04 76.42 73.40 C 76.64 77.23 74.08 80.47 74.17 84.23 C 74.14 84.98 74.10 86.48 74.08 87.23 L 74.06 87.88 C 73.74 88.08 73.10 88.47 72.79 88.67 C 70.90 89.13 66.66 93.15 70.81 92.89 L 70.80 93.62 C 68.29 99.20 67.50 105.38 65.13 111.02 C 62.25 115.50 60.05 120.76 60.10 126.17 C 58.03 129.94 50.18 126.98 52.05 132.82 C 53.35 133.05 55.96 133.51 57.27 133.74 C 55.28 145.29 50.16 156.09 46.62 167.23 C 46.64 167.66 46.69 168.53 46.71 168.96 L 45.87 169.00 C 40.14 168.80 34.73 170.93 29.20 172.01 C 29.06 171.28 28.78 169.81 28.63 169.08 C 30.22 167.93 30.23 165.96 30.10 164.20 C 32.35 158.55 34.06 152.71 36.31 147.07 C 37.22 145.78 38.14 144.46 38.41 142.88 C 39.96 141.29 40.42 139.16 39.99 137.01 C 41.49 135.40 42.40 133.15 41.75 130.96 C 43.96 126.21 45.40 121.16 47.13 116.23 C 49.80 110.52 52.94 104.38 52.87 97.96 C 55.68 96.79 55.51 93.38 55.92 90.84 C 57.58 87.92 59.18 84.97 60.93 82.10 C 62.49 80.91 63.92 79.56 65.14 78.03 Z" />
</g>
<g id="#dffdfdff">
<path fill="#dffdfd" opacity="1.00" d=" M 138.18 71.08 C 139.02 70.41 139.98 70.02 141.06 69.91 C 140.94 71.58 140.42 73.18 139.89 74.77 C 138.07 77.08 137.94 79.98 137.84 82.84 L 137.70 83.77 C 136.73 88.09 135.48 92.36 134.82 96.75 C 132.15 98.68 132.00 104.52 133.99 105.96 C 142.68 105.76 150.69 110.71 159.32 109.73 L 160.28 109.92 C 159.85 111.81 159.10 113.59 158.28 115.34 C 156.89 116.63 155.47 117.90 153.98 119.08 C 151.58 120.91 149.22 122.79 146.94 124.77 C 145.04 125.91 143.21 127.21 141.86 128.99 C 134.98 136.48 126.26 142.02 119.62 149.73 C 116.83 151.47 114.32 153.62 111.74 155.64 C 110.13 156.68 108.65 157.88 107.09 158.97 C 107.06 158.31 106.99 157.00 106.96 156.34 C 108.71 153.10 110.46 149.68 109.98 145.87 C 110.45 144.69 110.87 143.49 111.25 142.28 C 113.24 137.68 114.08 132.68 116.13 128.12 C 116.77 125.82 119.47 122.15 116.20 120.82 C 111.27 121.67 106.49 116.79 101.87 119.66 L 101.12 119.70 C 98.86 118.62 93.84 120.53 93.70 116.90 C 94.78 115.58 95.97 114.35 97.06 113.03 C 98.26 111.62 99.55 110.28 100.94 109.05 C 103.31 108.13 104.56 105.99 105.95 104.01 C 109.12 102.79 111.97 100.37 113.18 97.13 C 113.39 96.92 113.81 96.50 114.02 96.29 C 119.25 91.43 123.70 85.78 129.20 81.19 C 132.29 77.95 136.37 75.32 138.18 71.08 Z" />
</g>
<g id="#31b5d0ff">
<path fill="#31b5d0" opacity="1.00" d=" M 148.96 70.18 C 150.63 70.83 152.27 71.54 153.93 72.19 C 154.19 76.79 156.80 81.45 154.41 85.83 C 155.15 87.88 156.32 89.89 158.54 90.54 C 160.94 91.22 159.13 94.65 161.33 95.59 C 164.65 96.46 168.72 97.22 170.21 100.75 C 171.71 104.48 172.24 108.57 173.41 112.43 C 176.35 116.34 172.50 118.35 170.96 121.06 C 171.33 122.76 172.50 124.15 173.01 125.81 C 171.48 126.37 169.61 126.14 168.34 127.28 C 167.73 129.08 167.26 130.92 166.64 132.71 C 164.82 133.87 162.64 134.10 160.57 134.49 L 159.66 134.25 C 159.16 133.40 158.65 132.56 158.14 131.73 L 157.77 131.12 C 159.58 130.25 162.20 130.17 162.82 127.87 C 164.56 122.81 170.14 119.11 167.99 113.06 C 167.91 105.35 161.87 100.25 155.34 97.61 C 149.71 93.14 152.34 85.24 150.58 79.22 C 150.89 77.11 151.52 75.07 151.95 72.98 C 150.61 73.15 149.30 73.44 147.98 73.70 C 148.27 72.51 148.64 71.35 148.96 70.18 Z" />
</g>
<g id="#92d8e0ff">
<path fill="#92d8e0" opacity="1.00" d=" M 123.83 83.87 C 128.28 79.25 133.31 75.22 138.18 71.08 C 136.37 75.32 132.29 77.95 129.20 81.19 C 123.70 85.78 119.25 91.43 114.02 96.29 C 113.34 92.66 116.94 91.03 118.95 88.71 C 120.54 87.06 122.24 85.52 123.83 83.87 Z" />
</g>
<g id="#42bfd9ff">
<path fill="#42bfd9" opacity="1.00" d=" M 76.42 73.40 C 76.83 73.04 77.64 72.33 78.05 71.97 C 77.43 76.22 76.64 80.62 74.17 84.23 C 74.08 80.47 76.64 77.23 76.42 73.40 Z" />
</g>
<g id="#26b1d0ff">
<path fill="#26b1d0" opacity="1.00" d=" M 153.93 72.19 C 155.64 72.85 157.37 73.48 159.13 74.01 C 166.94 78.37 175.62 81.37 182.68 86.99 C 182.97 87.25 183.55 87.76 183.84 88.02 C 187.08 91.19 190.82 93.86 193.78 97.32 C 193.68 101.63 192.16 105.70 191.99 110.00 C 190.57 113.24 189.24 116.66 189.22 120.26 C 188.40 122.76 187.09 125.09 186.72 127.73 C 185.52 130.34 184.82 133.13 185.02 136.02 C 181.86 139.99 180.87 145.16 181.07 150.13 C 180.42 152.13 179.79 154.14 179.19 156.16 C 179.13 154.82 179.03 153.48 178.88 152.14 C 177.35 151.98 175.81 151.94 174.27 151.83 L 173.79 151.28 C 173.41 146.49 168.82 143.46 166.43 139.62 C 165.11 137.23 162.66 136.05 160.57 134.49 C 162.64 134.10 164.82 133.87 166.64 132.71 C 167.26 130.92 167.73 129.08 168.34 127.28 C 169.61 126.14 171.48 126.37 173.01 125.81 C 172.50 124.15 171.33 122.76 170.96 121.06 C 172.50 118.35 176.35 116.34 173.41 112.43 C 172.24 108.57 171.71 104.48 170.21 100.75 C 168.72 97.22 164.65 96.46 161.33 95.59 C 159.13 94.65 160.94 91.22 158.54 90.54 C 156.32 89.89 155.15 87.88 154.41 85.83 C 156.80 81.45 154.19 76.79 153.93 72.19 Z" />
</g>
<g id="#35deedff">
<path fill="#35deed" opacity="1.00" d=" M 82.77 82.90 C 86.03 78.07 92.14 75.82 97.06 72.84 L 97.26 73.66 C 92.84 77.34 87.77 80.11 82.77 82.90 Z" />
</g>
<g id="#0aebf5ff">
<path fill="#0aebf5" opacity="1.00" d=" M 82.77 82.90 C 87.77 80.11 92.84 77.34 97.26 73.66 C 97.86 75.12 97.37 76.67 97.22 78.17 C 96.45 79.04 95.66 79.89 94.88 80.76 C 91.25 83.52 87.81 86.57 84.67 89.88 C 82.68 91.83 85.98 94.20 87.96 93.89 C 88.49 94.19 89.55 94.81 90.08 95.11 C 90.47 99.15 88.54 103.59 84.87 105.45 C 82.60 104.05 80.75 102.15 78.90 100.27 C 77.89 98.14 76.17 96.50 74.06 95.50 C 73.01 94.81 71.92 94.18 70.80 93.62 L 70.81 92.89 C 71.41 91.45 72.11 90.07 72.79 88.67 C 73.10 88.47 73.74 88.08 74.06 87.88 C 76.32 88.73 78.13 87.07 78.97 85.12 C 80.25 84.40 81.52 83.66 82.77 82.90 Z" />
</g>
<g id="#a6dee4ff">
<path fill="#a6dee4" opacity="1.00" d=" M 137.84 82.84 C 137.94 79.98 138.07 77.08 139.89 74.77 C 140.09 77.63 139.51 80.43 138.70 83.16 L 137.84 82.84 Z" />
</g>
<g id="#235467ff">
<path fill="#235467" opacity="1.00" d=" M 174.08 74.79 C 177.24 75.69 180.24 77.06 183.05 78.76 C 182.56 78.80 181.58 78.88 181.08 78.93 C 180.09 78.52 179.11 78.13 178.12 77.74 C 176.69 76.87 175.32 75.91 174.08 74.79 Z" />
</g>
<g id="#317783ff">
<path fill="#317783" opacity="1.00" d=" M 60.93 82.10 C 61.30 79.82 63.18 78.34 64.77 76.86 L 65.14 78.03 C 63.92 79.56 62.49 80.91 60.93 82.10 Z" />
</g>
<g id="#77d9e6ff">
<path fill="#77d9e6" opacity="1.00" d=" M 110.54 80.38 C 110.79 79.03 110.95 77.35 112.77 78.17 C 113.62 80.05 114.32 82.01 114.86 84.01 C 114.20 85.49 112.89 86.57 112.02 87.93 C 113.96 89.60 116.66 88.09 118.95 88.71 C 116.94 91.03 113.34 92.66 114.02 96.29 C 112.87 95.92 111.75 95.48 110.66 94.98 C 110.71 93.23 112.04 89.98 108.98 90.97 C 106.17 90.24 106.30 93.73 105.49 95.48 C 102.99 96.44 100.43 98.03 100.72 101.11 C 100.29 100.81 99.44 100.21 99.02 99.91 C 98.99 98.31 99.50 96.86 100.80 95.87 C 103.22 92.76 104.31 88.79 106.37 85.44 C 108.64 84.57 112.39 85.18 110.54 80.38 Z" />
</g>
<g id="#0494c7ff">
<path fill="#0494c7" opacity="1.00" d=" M 181.95 81.10 C 179.00 84.81 172.87 77.37 178.12 77.74 C 179.11 78.13 180.09 78.52 181.08 78.93 C 181.30 79.47 181.73 80.56 181.95 81.10 Z" />
</g>
<g id="#255553ff">
<path fill="#255553" opacity="1.00" d=" M 183.05 78.76 C 185.63 79.75 187.94 81.24 190.26 82.72 C 189.46 82.73 187.88 82.74 187.08 82.75 C 185.65 81.51 184.13 80.34 183.05 78.76 Z" />
</g>
<g id="#56d1e5ff">
<path fill="#56d1e5" opacity="1.00" d=" M 84.67 89.88 C 87.81 86.57 91.25 83.52 94.88 80.76 C 94.12 83.08 93.14 85.32 92.66 87.73 C 91.47 90.07 90.81 92.61 90.08 95.11 C 89.55 94.81 88.49 94.19 87.96 93.89 C 87.06 92.40 85.89 91.11 84.67 89.88 Z" />
</g>
<g id="#47c0daff">
<path fill="#47c0da" opacity="1.00" d=" M 95.88 98.04 C 100.17 93.43 100.58 86.51 105.17 82.04 C 105.45 87.26 99.99 90.51 100.80 95.87 C 99.50 96.86 98.99 98.31 99.02 99.91 C 98.08 99.53 97.14 99.15 96.20 98.78 L 95.88 98.04 Z" />
</g>
<g id="#6cc9daff">
<path fill="#6cc9da" opacity="1.00" d=" M 137.84 82.84 L 138.70 83.16 C 143.35 84.03 142.83 89.75 144.53 93.20 C 143.38 97.94 147.55 99.56 150.48 101.52 C 152.14 104.17 153.98 106.70 156.13 108.99 C 153.08 108.57 150.22 107.37 147.25 106.61 C 144.49 103.02 142.86 98.63 139.68 95.36 C 139.24 91.46 138.33 87.64 137.70 83.77 L 137.84 82.84 Z" />
</g>
<g id="#028bacff">
<path fill="#028bac" opacity="1.00" d=" M 182.68 86.99 C 184.04 85.47 185.49 84.02 187.08 82.75 C 187.88 82.74 189.46 82.73 190.26 82.72 C 201.68 90.36 213.14 98.43 220.78 110.14 L 221.09 110.85 C 220.92 113.59 222.34 115.97 223.95 118.06 C 224.80 121.70 226.01 125.32 225.99 129.10 C 225.38 128.37 224.76 127.66 224.13 126.97 C 217.87 155.00 207.86 182.02 201.02 209.89 C 198.77 212.46 197.55 215.66 198.03 219.10 C 196.91 220.64 195.94 222.27 195.60 224.17 C 193.79 221.71 192.19 219.09 190.19 216.78 C 190.71 214.53 188.89 213.32 186.89 213.18 C 186.65 212.92 186.18 212.40 185.95 212.14 C 184.26 210.09 182.78 207.71 180.02 207.06 C 178.60 204.97 176.89 202.75 174.10 202.78 C 172.25 201.04 170.07 199.68 167.90 198.39 C 171.43 196.66 167.65 192.38 170.99 190.11 C 173.18 186.11 173.68 181.36 173.98 176.90 C 175.72 170.77 177.47 164.62 178.36 158.30 C 178.56 157.76 178.98 156.69 179.19 156.16 C 179.79 154.14 180.42 152.13 181.07 150.13 C 183.37 145.77 185.33 141.10 185.02 136.02 C 186.34 133.47 187.16 130.62 186.72 127.73 C 187.09 125.09 188.40 122.76 189.22 120.26 C 191.23 117.20 192.46 113.77 191.99 110.00 C 193.85 105.96 195.18 101.59 195.01 97.09 C 192.05 93.41 188.87 88.83 183.84 88.02 C 183.55 87.76 182.97 87.25 182.68 86.99 Z" />
</g>
<g id="#8ad6deff">
<path fill="#8ad6de" opacity="1.00" d=" M 134.82 96.75 C 135.48 92.36 136.73 88.09 137.70 83.77 C 138.33 87.64 139.24 91.46 139.68 95.36 C 142.86 98.63 144.49 103.02 147.25 106.61 C 150.22 107.37 153.08 108.57 156.13 108.99 C 157.20 109.21 158.26 109.46 159.32 109.73 C 150.69 110.71 142.68 105.76 133.99 105.96 C 134.26 102.88 134.65 99.83 134.82 96.75 Z" />
</g>
<g id="#2fe1f1ff">
<path fill="#2fe1f1" opacity="1.00" d=" M 74.08 87.23 C 75.66 86.42 77.12 85.20 78.97 85.12 C 78.13 87.07 76.32 88.73 74.06 87.88 L 74.08 87.23 Z" />
</g>
<g id="#44c1d8ff">
<path fill="#44c1d8" opacity="1.00" d=" M 90.08 95.11 C 90.81 92.61 91.47 90.07 92.66 87.73 C 92.82 90.62 93.76 93.90 90.84 95.54 L 90.08 95.11 Z" />
</g>
<g id="#119dc0ff">
<path fill="#119dc0" opacity="1.00" d=" M 183.84 88.02 C 188.87 88.83 192.05 93.41 195.01 97.09 C 195.18 101.59 193.85 105.96 191.99 110.00 C 192.16 105.70 193.68 101.63 193.78 97.32 C 190.82 93.86 187.08 91.19 183.84 88.02 Z" />
</g>
<g id="#0fccdbff">
<path fill="#0fccdb" opacity="1.00" d=" M 70.81 92.89 C 66.66 93.15 70.90 89.13 72.79 88.67 C 72.11 90.07 71.41 91.45 70.81 92.89 Z" />
</g>
<g id="#32e4eaff">
<path fill="#32e4ea" opacity="1.00" d=" M 87.96 93.89 C 85.98 94.20 82.68 91.83 84.67 89.88 C 85.89 91.11 87.06 92.40 87.96 93.89 Z" />
</g>
<g id="#2b6772ff">
<path fill="#2b6772" opacity="1.00" d=" M 52.87 97.96 C 53.63 95.49 54.39 92.97 55.92 90.84 C 55.51 93.38 55.68 96.79 52.87 97.96 Z" />
</g>
<g id="#8ee6ecff">
<path fill="#8ee6ec" opacity="1.00" d=" M 105.49 95.48 C 106.30 93.73 106.17 90.24 108.98 90.97 C 112.04 89.98 110.71 93.23 110.66 94.98 C 108.81 96.07 109.12 98.25 109.01 100.09 C 107.99 101.40 106.93 102.68 105.95 104.01 C 104.56 105.99 103.31 108.13 100.94 109.05 C 101.84 107.42 103.02 105.96 103.77 104.25 C 102.79 103.17 101.74 102.15 100.72 101.11 C 100.43 98.03 102.99 96.44 105.49 95.48 Z" />
</g>
<g id="#907c69ff">
<path fill="#907c69" opacity="1.00" d=" M 247.05 90.94 L 248.00 91.08 L 248.00 103.92 L 247.04 104.06 C 247.03 99.69 247.03 95.31 247.05 90.94 Z" />
</g>
<g id="#46c9e0ff">
<path fill="#46c9e0" opacity="1.00" d=" M 65.13 111.02 C 67.50 105.38 68.29 99.20 70.80 93.62 C 71.92 94.18 73.01 94.81 74.06 95.50 C 68.54 97.60 70.37 105.28 68.53 109.61 C 65.23 113.50 64.66 118.93 64.13 123.80 C 64.62 123.92 65.60 124.16 66.09 124.28 C 64.81 125.00 63.50 125.63 62.14 126.18 L 61.04 126.12 C 62.61 121.15 64.95 116.30 65.13 111.02 Z" />
</g>
<g id="#0cddedff">
<path fill="#0cdded" opacity="1.00" d=" M 90.08 95.11 L 90.84 95.54 C 92.44 96.54 94.18 97.25 95.88 98.04 L 96.20 98.78 C 96.51 100.20 97.81 102.08 95.94 102.94 C 92.96 104.35 94.08 109.52 90.17 109.19 C 88.84 108.45 87.51 107.71 86.21 106.92 C 85.87 106.55 85.20 105.82 84.87 105.45 C 88.54 103.59 90.47 99.15 90.08 95.11 Z" />
</g>
<g id="#94dbe1ff">
<path fill="#94dbe1" opacity="1.00" d=" M 109.01 100.09 C 109.12 98.25 108.81 96.07 110.66 94.98 C 111.75 95.48 112.87 95.92 114.02 96.29 C 113.81 96.50 113.39 96.92 113.18 97.13 C 111.74 98.04 110.36 99.06 109.01 100.09 Z" />
</g>
<g id="#5dd4e7ff">
<path fill="#5dd4e7" opacity="1.00" d=" M 68.53 109.61 C 70.37 105.28 68.54 97.60 74.06 95.50 C 74.88 97.76 76.66 99.44 78.90 100.27 C 80.75 102.15 82.60 104.05 84.87 105.45 C 85.20 105.82 85.87 106.55 86.21 106.92 C 86.80 110.75 84.46 113.48 81.92 115.94 C 77.06 119.43 71.22 121.23 66.09 124.28 C 65.60 124.16 64.62 123.92 64.13 123.80 C 64.66 118.93 65.23 113.50 68.53 109.61 Z" />
</g>
<g id="#33e3ecff">
<path fill="#33e3ec" opacity="1.00" d=" M 74.06 95.50 C 76.17 96.50 77.89 98.14 78.90 100.27 C 76.66 99.44 74.88 97.76 74.06 95.50 Z" />
</g>
<g id="#bcecefff">
<path fill="#bcecef" opacity="1.00" d=" M 109.01 100.09 C 110.36 99.06 111.74 98.04 113.18 97.13 C 111.97 100.37 109.12 102.79 105.95 104.01 C 106.93 102.68 107.99 101.40 109.01 100.09 Z" />
</g>
<g id="#aeeaeeff">
<path fill="#aeeaee" opacity="1.00" d=" M 133.99 105.96 C 132.00 104.52 132.15 98.68 134.82 96.75 C 134.65 99.83 134.26 102.88 133.99 105.96 Z" />
</g>
<g id="#6a3d32ff">
<path fill="#6a3d32" opacity="1.00" d=" M 241.20 106.24 C 240.95 103.06 241.26 99.89 241.87 96.77 C 242.04 99.95 241.79 103.11 241.20 106.24 Z" />
</g>
<g id="#37636cff">
<path fill="#37636c" opacity="1.00" d=" M 47.13 116.23 C 47.68 109.82 50.77 103.97 52.87 97.96 C 52.94 104.38 49.80 110.52 47.13 116.23 Z" />
</g>
<g id="#24e0eeff">
<path fill="#24e0ee" opacity="1.00" d=" M 96.20 98.78 C 97.14 99.15 98.08 99.53 99.02 99.91 C 99.51 102.80 97.16 104.71 96.38 107.27 C 96.48 109.18 97.05 111.15 96.12 112.97 C 94.49 114.05 93.08 115.40 91.77 116.85 C 91.31 116.86 90.37 116.89 89.91 116.90 C 90.98 115.65 92.09 114.42 93.08 113.10 C 91.68 112.97 90.28 112.87 88.88 112.80 C 89.88 111.77 91.14 110.69 90.17 109.19 C 94.08 109.52 92.96 104.35 95.94 102.94 C 97.81 102.08 96.51 100.20 96.20 98.78 Z" />
</g>
<g id="#4aeef5ff">
<path fill="#4aeef5" opacity="1.00" d=" M 99.02 99.91 C 99.44 100.21 100.29 100.81 100.72 101.11 C 101.74 102.15 102.79 103.17 103.77 104.25 C 103.02 105.96 101.84 107.42 100.94 109.05 C 99.55 110.28 98.26 111.62 97.06 113.03 L 96.12 112.97 C 97.05 111.15 96.48 109.18 96.38 107.27 C 97.16 104.71 99.51 102.80 99.02 99.91 Z" />
</g>
<g id="#4f1714ff">
<path fill="#4f1714" opacity="1.00" d=" M 220.17 106.18 C 221.76 104.03 224.53 104.27 226.89 103.98 C 231.87 109.70 233.73 117.34 233.95 124.79 C 232.29 128.56 230.39 132.25 227.84 135.52 C 227.62 134.91 227.17 133.68 226.95 133.06 C 227.18 127.63 227.13 121.70 224.29 116.86 C 223.42 114.76 222.35 112.74 221.09 110.85 L 220.78 110.14 C 220.56 108.82 220.25 107.51 220.17 106.18 Z" />
</g>
<g id="#39c6deff">
<path fill="#39c6de" opacity="1.00" d=" M 86.21 106.92 C 87.51 107.71 88.84 108.45 90.17 109.19 C 91.14 110.69 89.88 111.77 88.88 112.80 C 86.81 112.85 85.26 114.07 83.93 115.53 C 83.43 115.63 82.42 115.84 81.92 115.94 C 84.46 113.48 86.80 110.75 86.21 106.92 Z" />
</g>
<g id="#8ce0f0ff">
<path fill="#8ce0f0" opacity="1.00" d=" M 160.28 109.92 C 164.34 110.33 160.62 114.76 158.28 115.34 C 159.10 113.59 159.85 111.81 160.28 109.92 Z" />
</g>
<g id="#109abbff">
<path fill="#109abb" opacity="1.00" d=" M 189.22 120.26 C 189.24 116.66 190.57 113.24 191.99 110.00 C 192.46 113.77 191.23 117.20 189.22 120.26 Z" />
</g>
<g id="#37b8d2ff">
<path fill="#37b8d2" opacity="1.00" d=" M 60.10 126.17 C 60.05 120.76 62.25 115.50 65.13 111.02 C 64.95 116.30 62.61 121.15 61.04 126.12 L 60.10 126.17 Z" />
</g>
<g id="#1c5466ff">
<path fill="#1c5466" opacity="1.00" d=" M 221.09 110.85 C 222.35 112.74 223.42 114.76 224.29 116.86 L 223.95 118.06 C 222.34 115.97 220.92 113.59 221.09 110.85 Z" />
</g>
<g id="#0ed4ecff">
<path fill="#0ed4ec" opacity="1.00" d=" M 83.93 115.53 C 85.26 114.07 86.81 112.85 88.88 112.80 C 90.28 112.87 91.68 112.97 93.08 113.10 C 92.09 114.42 90.98 115.65 89.91 116.90 C 87.62 119.08 85.25 121.28 82.13 122.17 C 83.27 120.12 86.48 117.84 83.93 115.53 Z" />
</g>
<g id="#87d7e0ff">
<path fill="#87d7e0" opacity="1.00" d=" M 91.77 116.85 C 93.08 115.40 94.49 114.05 96.12 112.97 L 97.06 113.03 C 95.97 114.35 94.78 115.58 93.70 116.90 C 90.36 121.82 97.99 119.73 101.12 119.70 L 101.87 119.66 C 103.93 119.88 105.97 120.28 107.92 121.00 C 110.49 121.78 113.27 121.73 115.91 122.25 C 115.96 123.72 116.07 126.65 116.13 128.12 C 114.08 132.68 113.24 137.68 111.25 142.28 C 111.10 139.96 111.47 137.66 111.55 135.36 C 107.88 131.14 106.74 125.36 102.93 121.21 C 102.47 121.41 101.53 121.79 101.06 121.99 C 98.31 123.41 95.64 121.89 92.97 121.10 C 92.63 120.53 91.96 119.39 91.62 118.81 C 91.66 118.32 91.73 117.34 91.77 116.85 Z" />
</g>
<g id="#0be9f5ff">
<path fill="#0be9f5" opacity="1.00" d=" M 66.09 124.28 C 71.22 121.23 77.06 119.43 81.92 115.94 C 82.42 115.84 83.43 115.63 83.93 115.53 C 86.48 117.84 83.27 120.12 82.13 122.17 C 81.88 122.39 81.38 122.83 81.13 123.06 C 77.49 124.72 70.41 125.49 70.97 130.90 C 71.71 130.93 73.18 130.99 73.92 131.02 C 74.75 131.03 76.40 131.06 77.23 131.07 C 77.39 132.36 77.28 133.67 77.15 134.97 C 75.09 135.01 73.03 135.05 70.97 135.03 C 66.78 133.70 62.43 133.19 58.07 132.90 C 57.50 129.83 60.46 128.22 62.14 126.18 C 63.50 125.63 64.81 125.00 66.09 124.28 Z" />
</g>
<g id="#2fb6d4ff">
<path fill="#2fb6d4" opacity="1.00" d=" M 82.13 122.17 C 85.25 121.28 87.62 119.08 89.91 116.90 C 88.50 121.94 88.46 127.17 86.93 132.19 L 86.73 133.14 C 84.18 132.36 81.58 131.77 79.02 131.07 C 79.87 128.76 80.42 126.35 80.93 123.94 L 81.13 123.06 C 81.38 122.83 81.88 122.39 82.13 122.17 Z" />
</g>
<g id="#4ac0d8ff">
<path fill="#4ac0d8" opacity="1.00" d=" M 89.91 116.90 C 90.37 116.89 91.31 116.86 91.77 116.85 C 91.73 117.34 91.66 118.32 91.62 118.81 C 91.51 123.03 90.38 127.09 88.71 130.93 C 88.27 131.24 87.37 131.88 86.93 132.19 C 88.46 127.17 88.50 121.94 89.91 116.90 Z" />
</g>
<g id="#b8eff5ff">
<path fill="#b8eff5" opacity="1.00" d=" M 101.12 119.70 C 97.99 119.73 90.36 121.82 93.70 116.90 C 93.84 120.53 98.86 118.62 101.12 119.70 Z" />
</g>
<g id="#344248ff">
<path fill="#344248" opacity="1.00" d=" M 224.29 116.86 C 227.13 121.70 227.18 127.63 226.95 133.06 L 226.02 132.98 C 226.03 131.69 226.02 130.39 225.99 129.10 C 226.01 125.32 224.80 121.70 223.95 118.06 L 224.29 116.86 Z" />
</g>
<g id="#c5f3f9ff">
<path fill="#c5f3f9" opacity="1.00" d=" M 101.87 119.66 C 106.49 116.79 111.27 121.67 116.20 120.82 C 113.44 120.92 110.68 120.98 107.92 121.00 C 105.97 120.28 103.93 119.88 101.87 119.66 Z" />
</g>
<g id="#61d3e6ff">
<path fill="#61d3e6" opacity="1.00" d=" M 88.71 130.93 C 90.38 127.09 91.51 123.03 91.62 118.81 C 91.96 119.39 92.63 120.53 92.97 121.10 C 92.78 124.78 92.08 128.42 92.00 132.11 C 94.79 131.73 96.85 129.66 98.92 127.95 L 98.96 128.99 C 98.08 130.76 97.05 132.45 96.05 134.16 C 92.81 134.48 89.19 134.73 88.71 130.93 Z" />
</g>
<g id="#83d2e0ff">
<path fill="#83d2e0" opacity="1.00" d=" M 146.94 124.77 C 149.22 122.79 151.58 120.91 153.98 119.08 C 152.10 121.36 157.57 125.10 153.10 125.08 C 152.13 124.66 151.40 122.28 150.26 123.30 C 147.50 124.51 150.99 126.97 150.90 128.90 C 146.81 128.21 145.33 132.41 142.62 134.53 C 136.78 137.47 133.26 143.82 126.92 145.92 C 124.33 146.90 122.38 149.10 119.62 149.73 C 126.26 142.02 134.98 136.48 141.86 128.99 C 143.91 128.27 147.01 127.45 146.94 124.77 Z" />
</g>
<g id="#75dbeaff">
<path fill="#75dbea" opacity="1.00" d=" M 92.97 121.10 C 95.64 121.89 98.31 123.41 101.06 121.99 C 100.24 123.93 99.21 125.82 98.92 127.95 C 96.85 129.66 94.79 131.73 92.00 132.11 C 92.08 128.42 92.78 124.78 92.97 121.10 Z" />
</g>
<g id="#6eccdbff">
<path fill="#6eccdb" opacity="1.00" d=" M 101.06 121.99 C 101.53 121.79 102.47 121.41 102.93 121.21 C 106.74 125.36 107.88 131.14 111.55 135.36 C 111.47 137.66 111.10 139.96 111.25 142.28 C 110.87 143.49 110.45 144.69 109.98 145.87 C 109.09 148.00 108.33 150.18 107.22 152.21 C 106.18 144.38 106.86 136.19 104.25 128.71 C 103.04 126.26 100.07 126.71 98.96 128.99 L 98.92 127.95 C 99.21 125.82 100.24 123.93 101.06 121.99 Z" />
</g>
<g id="#a8e4e6ff">
<path fill="#a8e4e6" opacity="1.00" d=" M 107.92 121.00 C 110.68 120.98 113.44 120.92 116.20 120.82 C 119.47 122.15 116.77 125.82 116.13 128.12 C 116.07 126.65 115.96 123.72 115.91 122.25 C 113.27 121.73 110.49 121.78 107.92 121.00 Z" />
</g>
<g id="#31dfefff">
<path fill="#31dfef" opacity="1.00" d=" M 70.97 130.90 C 70.41 125.49 77.49 124.72 81.13 123.06 L 80.93 123.94 C 78.64 126.60 71.00 126.34 73.92 131.02 C 73.18 130.99 71.71 130.93 70.97 130.90 Z" />
</g>
<g id="#48dae7ff">
<path fill="#48dae7" opacity="1.00" d=" M 150.26 123.30 C 151.40 122.28 152.13 124.66 153.10 125.08 C 154.38 126.29 155.99 127.35 156.14 129.29 C 155.13 128.48 154.14 127.66 153.07 126.95 C 152.29 128.15 152.07 129.57 151.82 130.96 L 151.11 130.97 C 151.06 130.45 150.95 129.42 150.90 128.90 C 150.99 126.97 147.50 124.51 150.26 123.30 Z" />
</g>
<g id="#57d0e7ff">
<path fill="#57d0e7" opacity="1.00" d=" M 73.92 131.02 C 71.00 126.34 78.64 126.60 80.93 123.94 C 80.42 126.35 79.87 128.76 79.02 131.07 C 78.57 131.07 77.68 131.07 77.23 131.07 C 76.40 131.06 74.75 131.03 73.92 131.02 Z" />
</g>
<g id="#afe3eeff">
<path fill="#afe3ee" opacity="1.00" d=" M 141.86 128.99 C 143.21 127.21 145.04 125.91 146.94 124.77 C 147.01 127.45 143.91 128.27 141.86 128.99 Z" />
</g>
<g id="#703f37ff">
<path fill="#703f37" opacity="1.00" d=" M 227.84 135.52 C 230.39 132.25 232.29 128.56 233.95 124.79 C 234.68 124.83 236.13 124.90 236.86 124.94 C 235.22 129.70 232.40 134.01 228.32 137.05 C 228.20 136.67 227.96 135.90 227.84 135.52 Z" />
</g>
<g id="#0bcde1ff">
<path fill="#0bcde1" opacity="1.00" d=" M 60.10 126.17 L 61.04 126.12 L 62.14 126.18 C 60.46 128.22 57.50 129.83 58.07 132.90 L 58.03 133.84 L 57.27 133.74 C 55.96 133.51 53.35 133.05 52.05 132.82 C 50.18 126.98 58.03 129.94 60.10 126.17 Z" />
</g>
<g id="#58c4d8ff">
<path fill="#58c4d8" opacity="1.00" d=" M 98.96 128.99 C 100.07 126.71 103.04 126.26 104.25 128.71 C 106.86 136.19 106.18 144.38 107.22 152.21 C 107.12 153.58 107.04 154.96 106.96 156.34 L 106.22 155.55 C 104.67 152.87 101.57 150.77 103.15 147.00 C 103.66 141.82 102.35 136.86 100.70 132.04 C 98.69 132.14 97.54 134.04 96.05 135.14 L 96.05 134.16 C 97.05 132.45 98.08 130.76 98.96 128.99 Z" />
</g>
<g id="#1edfe9ff">
<path fill="#1edfe9" opacity="1.00" d=" M 153.07 126.95 C 154.14 127.66 155.13 128.48 156.14 129.29 C 156.67 129.90 157.22 130.51 157.77 131.12 L 158.14 131.73 C 156.58 131.95 154.62 131.88 154.81 134.01 L 154.05 133.85 C 153.30 132.88 152.56 131.92 151.82 130.96 C 152.07 129.57 152.29 128.15 153.07 126.95 Z" />
</g>
<g id="#24abc7ff">
<path fill="#24abc7" opacity="1.00" d=" M 224.13 126.97 C 224.76 127.66 225.38 128.37 225.99 129.10 C 226.02 130.39 226.03 131.69 226.02 132.98 C 221.36 152.00 216.13 170.97 210.95 189.86 C 209.68 192.43 209.03 195.27 209.03 198.14 C 207.74 201.29 207.26 204.71 205.96 207.86 C 204.18 211.01 203.78 214.70 203.29 218.23 C 202.82 221.24 201.82 224.13 200.84 227.01 C 200.12 228.12 199.64 229.93 197.94 229.32 C 197.22 227.58 196.41 225.87 195.60 224.17 C 195.94 222.27 196.91 220.64 198.03 219.10 C 199.55 216.22 200.55 213.14 201.02 209.89 C 207.86 182.02 217.87 155.00 224.13 126.97 Z" />
</g>
<g id="#129dbdff">
<path fill="#129dbd" opacity="1.00" d=" M 185.02 136.02 C 184.82 133.13 185.52 130.34 186.72 127.73 C 187.16 130.62 186.34 133.47 185.02 136.02 Z" />
</g>
<g id="#61c6d8ff">
<path fill="#61c6d8" opacity="1.00" d=" M 142.62 134.53 C 145.33 132.41 146.81 128.21 150.90 128.90 C 150.95 129.42 151.06 130.45 151.11 130.97 C 149.45 133.35 148.11 136.26 145.13 137.22 C 136.77 145.22 127.95 154.28 116.33 157.38 C 116.10 158.60 115.90 159.82 115.72 161.06 C 113.70 160.68 112.69 158.66 111.05 157.62 C 111.22 157.13 111.57 156.14 111.74 155.64 C 114.32 153.62 116.83 151.47 119.62 149.73 C 122.38 149.10 124.33 146.90 126.92 145.92 C 133.26 143.82 136.78 137.47 142.62 134.53 Z" />
</g>
<g id="#366c6fff">
<path fill="#366c6f" opacity="1.00" d=" M 39.99 137.01 C 39.47 134.76 40.08 132.55 41.75 130.96 C 42.40 133.15 41.49 135.40 39.99 137.01 Z" />
</g>
<g id="#08d9ecff">
<path fill="#08d9ec" opacity="1.00" d=" M 77.23 131.07 C 77.68 131.07 78.57 131.07 79.02 131.07 C 81.58 131.77 84.18 132.36 86.73 133.14 C 87.06 133.41 87.72 133.96 88.05 134.23 C 86.32 136.01 83.90 137.38 84.39 140.54 C 81.86 143.49 80.70 148.30 83.16 151.53 C 81.28 155.10 79.08 158.49 76.89 161.87 C 75.57 163.74 73.73 165.42 73.35 167.79 C 72.84 167.82 71.81 167.87 71.29 167.90 C 69.57 166.02 66.95 165.76 64.73 164.78 L 65.11 164.00 C 66.95 160.09 69.55 156.62 71.88 152.99 C 72.63 152.42 73.36 151.82 74.07 151.19 C 76.81 149.12 78.40 145.95 80.12 143.07 C 81.43 141.14 83.49 139.60 84.05 137.26 C 81.73 136.82 79.42 136.33 77.10 135.91 L 77.15 134.97 C 77.28 133.67 77.39 132.36 77.23 131.07 Z" />
</g>
<g id="#45d4e7ff">
<path fill="#45d4e7" opacity="1.00" d=" M 86.93 132.19 C 87.37 131.88 88.27 131.24 88.71 130.93 C 89.19 134.73 92.81 134.48 96.05 134.16 L 96.05 135.14 C 95.25 137.85 94.46 140.58 93.28 143.16 C 93.64 139.13 90.45 143.20 88.76 143.86 C 90.04 140.94 93.35 138.75 92.96 135.27 C 91.33 134.92 89.68 134.64 88.05 134.23 C 87.72 133.96 87.06 133.41 86.73 133.14 L 86.93 132.19 Z" />
</g>
<g id="#41bbd3ff">
<path fill="#41bbd3" opacity="1.00" d=" M 151.11 130.97 L 151.82 130.96 C 152.56 131.92 153.30 132.88 154.05 133.85 C 154.06 134.27 154.10 135.11 154.12 135.54 C 146.80 144.41 137.37 151.11 129.28 159.22 C 128.53 160.03 128.11 160.99 128.02 162.11 C 125.91 162.68 123.83 163.35 121.79 164.11 C 120.43 165.21 119.42 166.70 117.90 167.60 C 112.79 166.04 107.48 165.19 102.35 163.64 C 100.61 162.85 101.19 160.72 100.74 159.21 C 99.63 159.33 98.55 159.59 97.43 159.68 C 96.74 157.86 95.64 156.28 94.50 154.72 C 95.80 151.57 97.72 148.50 96.97 144.84 C 91.45 145.52 92.73 152.32 89.19 155.13 L 88.87 153.93 C 89.65 150.06 91.19 146.49 93.28 143.16 C 94.46 140.58 95.25 137.85 96.05 135.14 C 97.54 134.04 98.69 132.14 100.70 132.04 C 102.35 136.86 103.66 141.82 103.15 147.00 C 101.57 150.77 104.67 152.87 106.22 155.55 C 103.42 156.91 103.09 160.80 105.11 163.03 C 106.47 162.16 107.77 161.17 108.89 160.01 C 109.61 159.21 110.33 158.42 111.05 157.62 C 112.69 158.66 113.70 160.68 115.72 161.06 C 115.90 159.82 116.10 158.60 116.33 157.38 C 127.95 154.28 136.77 145.22 145.13 137.22 C 148.11 136.26 149.45 133.35 151.11 130.97 Z" />
</g>
<g id="#04d7ecff">
<path fill="#04d7ec" opacity="1.00" d=" M 154.81 134.01 C 154.62 131.88 156.58 131.95 158.14 131.73 C 158.65 132.56 159.16 133.40 159.66 134.25 C 163.08 140.72 169.13 145.63 173.79 151.28 L 174.27 151.83 C 175.33 153.29 177.85 154.54 176.76 156.68 C 175.93 157.53 175.00 158.28 174.12 159.08 C 169.29 158.93 165.29 162.29 160.98 164.02 C 160.72 164.23 160.21 164.66 159.95 164.88 C 154.52 163.76 151.55 169.46 146.36 169.45 C 142.88 170.74 141.09 176.53 145.85 177.19 C 147.23 180.61 149.16 183.74 151.10 186.86 C 149.34 187.03 147.57 187.12 145.80 187.21 C 142.79 185.92 139.71 184.79 136.78 183.34 C 135.38 181.11 134.30 178.63 132.28 176.86 C 129.24 172.83 125.89 168.93 123.84 164.27 C 131.63 163.68 139.04 160.55 145.99 157.07 C 150.57 155.43 156.20 155.38 159.95 151.92 C 161.01 150.92 162.12 149.97 163.14 148.93 C 162.29 147.80 161.24 146.85 160.24 145.87 C 159.16 141.64 156.69 137.93 154.81 134.01 Z" />
</g>
<g id="#24dfeaff">
<path fill="#24dfea" opacity="1.00" d=" M 58.07 132.90 C 62.43 133.19 66.78 133.70 70.97 135.03 C 66.90 135.25 62.89 134.80 58.92 133.99 L 58.03 133.84 L 58.07 132.90 Z" />
</g>
<g id="#3ec0d8ff">
<path fill="#3ec0d8" opacity="1.00" d=" M 57.27 133.74 L 58.03 133.84 L 58.92 133.99 C 58.44 142.18 53.73 149.18 52.11 157.09 C 51.41 160.68 49.69 163.86 48.24 167.16 L 47.98 168.01 L 47.69 168.95 L 46.71 168.96 C 46.69 168.53 46.64 167.66 46.62 167.23 C 50.16 156.09 55.28 145.29 57.27 133.74 Z" />
</g>
<g id="#5ad4e6ff">
<path fill="#5ad4e6" opacity="1.00" d=" M 58.92 133.99 C 62.89 134.80 66.90 135.25 70.97 135.03 C 72.66 135.92 74.42 136.69 76.19 137.39 C 74.87 142.63 72.36 147.57 71.88 152.99 C 69.55 156.62 66.95 160.09 65.11 164.00 C 63.66 164.43 62.35 165.19 61.07 165.97 C 56.73 165.66 52.46 166.26 48.24 167.16 C 49.69 163.86 51.41 160.68 52.11 157.09 C 53.73 149.18 58.44 142.18 58.92 133.99 Z" />
</g>
<g id="#09e8f3ff">
<path fill="#09e8f3" opacity="1.00" d=" M 88.05 134.23 C 89.68 134.64 91.33 134.92 92.96 135.27 C 93.35 138.75 90.04 140.94 88.76 143.86 C 87.29 146.32 86.16 149.04 84.04 151.04 L 83.16 151.53 C 80.70 148.30 81.86 143.49 84.39 140.54 C 83.90 137.38 86.32 136.01 88.05 134.23 Z" />
</g>
<g id="#1dc1ddff">
<path fill="#1dc1dd" opacity="1.00" d=" M 154.05 133.85 L 154.81 134.01 C 156.69 137.93 159.16 141.64 160.24 145.87 C 156.81 143.36 155.45 139.38 154.12 135.54 C 154.10 135.11 154.06 134.27 154.05 133.85 Z" />
</g>
<g id="#16c1dcff">
<path fill="#16c1dc" opacity="1.00" d=" M 159.66 134.25 L 160.57 134.49 C 162.66 136.05 165.11 137.23 166.43 139.62 C 168.82 143.46 173.41 146.49 173.79 151.28 C 169.13 145.63 163.08 140.72 159.66 134.25 Z" />
</g>
<g id="#30dcefff">
<path fill="#30dcef" opacity="1.00" d=" M 70.97 135.03 C 73.03 135.05 75.09 135.01 77.15 134.97 L 77.10 135.91 C 76.87 136.28 76.42 137.02 76.19 137.39 C 74.42 136.69 72.66 135.92 70.97 135.03 Z" />
</g>
<g id="#28b6d2ff">
<path fill="#28b6d2" opacity="1.00" d=" M 77.10 135.91 C 79.42 136.33 81.73 136.82 84.05 137.26 C 83.49 139.60 81.43 141.14 80.12 143.07 C 77.17 144.94 74.50 147.57 74.07 151.19 C 73.36 151.82 72.63 152.42 71.88 152.99 C 72.36 147.57 74.87 142.63 76.19 137.39 C 76.42 137.02 76.87 136.28 77.10 135.91 Z" />
</g>
<g id="#2bb4d1ff">
<path fill="#2bb4d1" opacity="1.00" d=" M 129.28 159.22 C 137.37 151.11 146.80 144.41 154.12 135.54 C 155.45 139.38 156.81 143.36 160.24 145.87 C 161.24 146.85 162.29 147.80 163.14 148.93 C 162.12 149.97 161.01 150.92 159.95 151.92 C 155.12 152.19 149.43 153.40 145.99 157.07 C 139.73 157.33 133.83 159.79 128.02 162.11 C 128.11 160.99 128.53 160.03 129.28 159.22 Z" />
</g>
<g id="#149fbeff">
<path fill="#149fbe" opacity="1.00" d=" M 181.07 150.13 C 180.87 145.16 181.86 139.99 185.02 136.02 C 185.33 141.10 183.37 145.77 181.07 150.13 Z" />
</g>
<g id="#328b90ff">
<path fill="#328b90" opacity="1.00" d=" M 37.66 141.16 C 38.36 139.74 39.02 138.28 39.99 137.01 C 40.42 139.16 39.96 141.29 38.41 142.88 C 38.22 142.45 37.85 141.59 37.66 141.16 Z" />
</g>
<g id="#3b5865ff">
<path fill="#3b5865" opacity="1.00" d=" M 36.31 147.07 C 35.53 144.95 36.58 142.94 37.66 141.16 C 37.85 141.59 38.22 142.45 38.41 142.88 C 38.14 144.46 37.22 145.78 36.31 147.07 Z" />
</g>
<g id="#5cd3e7ff">
<path fill="#5cd3e7" opacity="1.00" d=" M 88.76 143.86 C 90.45 143.20 93.64 139.13 93.28 143.16 C 91.19 146.49 89.65 150.06 88.87 153.93 C 85.94 159.30 85.45 166.29 79.90 169.92 C 78.59 169.94 77.28 169.96 75.97 169.97 L 75.79 168.96 C 76.12 167.66 76.53 166.38 77.07 165.16 C 80.20 161.02 83.00 156.17 84.04 151.04 C 86.16 149.04 87.29 146.32 88.76 143.86 Z" />
</g>
<g id="#14bfdcff">
<path fill="#14bfdc" opacity="1.00" d=" M 74.07 151.19 C 74.50 147.57 77.17 144.94 80.12 143.07 C 78.40 145.95 76.81 149.12 74.07 151.19 Z" />
</g>
<g id="#2cb3cfff">
<path fill="#2cb3cf" opacity="1.00" d=" M 89.19 155.13 C 92.73 152.32 91.45 145.52 96.97 144.84 C 97.72 148.50 95.80 151.57 94.50 154.72 C 95.64 156.28 96.74 157.86 97.43 159.68 C 98.55 159.59 99.63 159.33 100.74 159.21 C 101.19 160.72 100.61 162.85 102.35 163.64 C 107.48 165.19 112.79 166.04 117.90 167.60 C 119.42 166.70 120.43 165.21 121.79 164.11 C 124.73 168.59 127.16 174.84 132.28 176.86 C 134.30 178.63 135.38 181.11 136.78 183.34 C 130.16 181.46 123.76 178.94 117.28 176.67 C 114.49 175.63 111.58 174.43 108.54 174.82 C 106.79 174.44 105.03 174.05 103.27 173.73 C 97.35 171.74 91.04 171.66 84.96 170.47 C 85.86 165.21 87.65 160.21 89.19 155.13 Z" />
</g>
<g id="#9ee1e9ff">
<path fill="#9ee1e9" opacity="1.00" d=" M 107.22 152.21 C 108.33 150.18 109.09 148.00 109.98 145.87 C 110.46 149.68 108.71 153.10 106.96 156.34 C 107.04 154.96 107.12 153.58 107.22 152.21 Z" />
</g>
<g id="#3dd6e7ff">
<path fill="#3dd6e7" opacity="1.00" d=" M 83.16 151.53 L 84.04 151.04 C 83.00 156.17 80.20 161.02 77.07 165.16 C 77.03 164.34 76.94 162.69 76.89 161.87 C 79.08 158.49 81.28 155.10 83.16 151.53 Z" />
</g>
<g id="#16c1deff">
<path fill="#16c1de" opacity="1.00" d=" M 145.99 157.07 C 149.43 153.40 155.12 152.19 159.95 151.92 C 156.20 155.38 150.57 155.43 145.99 157.07 Z" />
</g>
<g id="#15c0d8ff">
<path fill="#15c0d8" opacity="1.00" d=" M 174.27 151.83 C 175.81 151.94 177.35 151.98 178.88 152.14 C 179.03 153.48 179.13 154.82 179.19 156.16 C 178.98 156.69 178.56 157.76 178.36 158.30 C 176.95 158.58 175.53 158.83 174.12 159.08 C 175.00 158.28 175.93 157.53 176.76 156.68 C 177.85 154.54 175.33 153.29 174.27 151.83 Z" />
</g>
<g id="#3fc7daff">
<path fill="#3fc7da" opacity="1.00" d=" M 79.90 169.92 C 85.45 166.29 85.94 159.30 88.87 153.93 L 89.19 155.13 C 87.65 160.21 85.86 165.21 84.96 170.47 C 83.28 170.19 81.59 170.02 79.90 169.92 Z" />
</g>
<g id="#55c4daff">
<path fill="#55c4da" opacity="1.00" d=" M 105.11 163.03 C 103.09 160.80 103.42 156.91 106.22 155.55 C 105.90 158.03 105.38 161.06 108.89 160.01 C 107.77 161.17 106.47 162.16 105.11 163.03 Z" />
</g>
<g id="#9ddceaff">
<path fill="#9ddcea" opacity="1.00" d=" M 106.22 155.55 L 106.96 156.34 C 106.99 157.00 107.06 158.31 107.09 158.97 C 108.65 157.88 110.13 156.68 111.74 155.64 C 111.57 156.14 111.22 157.13 111.05 157.62 C 110.33 158.42 109.61 159.21 108.89 160.01 C 105.38 161.06 105.90 158.03 106.22 155.55 Z" />
</g>
<g id="#18c5dcff">
<path fill="#18c5dc" opacity="1.00" d=" M 128.02 162.11 C 133.83 159.79 139.73 157.33 145.99 157.07 C 139.04 160.55 131.63 163.68 123.84 164.27 C 125.89 168.93 129.24 172.83 132.28 176.86 C 127.16 174.84 124.73 168.59 121.79 164.11 C 123.83 163.35 125.91 162.68 128.02 162.11 Z" />
</g>
<g id="#24b1d0ff">
<path fill="#24b1d0" opacity="1.00" d=" M 174.12 159.08 C 175.53 158.83 176.95 158.58 178.36 158.30 C 177.47 164.62 175.72 170.77 173.98 176.90 C 172.78 181.24 170.77 185.50 170.99 190.11 C 167.65 192.38 171.43 196.66 167.90 198.39 C 166.54 197.65 165.26 196.78 163.99 195.91 C 163.21 193.93 161.13 193.11 159.14 192.99 C 156.77 191.11 154.01 189.69 150.89 189.99 C 149.26 188.94 147.57 188.00 145.80 187.21 C 147.57 187.12 149.34 187.03 151.10 186.86 C 149.16 183.74 147.23 180.61 145.85 177.19 C 146.28 175.26 145.11 172.34 147.32 171.31 C 151.57 169.38 156.78 168.49 159.95 164.88 C 160.21 164.66 160.72 164.23 160.98 164.02 C 165.94 164.61 170.46 162.10 174.12 159.08 Z" />
</g>
<g id="#13c4ddff">
<path fill="#13c4dd" opacity="1.00" d=" M 160.98 164.02 C 165.29 162.29 169.29 158.93 174.12 159.08 C 170.46 162.10 165.94 164.61 160.98 164.02 Z" />
</g>
<g id="#1dd1dcff">
<path fill="#1dd1dc" opacity="1.00" d=" M 73.35 167.79 C 73.73 165.42 75.57 163.74 76.89 161.87 C 76.94 162.69 77.03 164.34 77.07 165.16 C 76.53 166.38 76.12 167.66 75.79 168.96 C 71.22 168.99 66.65 168.99 62.07 169.03 L 61.05 168.99 L 60.82 167.98 L 61.79 167.94 C 64.95 167.92 68.13 168.00 71.29 167.90 C 71.81 167.87 72.84 167.82 73.35 167.79 Z" />
</g>
<g id="#405b5eff">
<path fill="#405b5e" opacity="1.00" d=" M 27.92 168.85 C 27.55 166.95 28.45 165.15 30.10 164.20 C 30.23 165.96 30.22 167.93 28.63 169.08 L 27.92 168.85 Z" />
</g>
<g id="#2ce4f4ff">
<path fill="#2ce4f4" opacity="1.00" d=" M 61.07 165.97 C 62.35 165.19 63.66 164.43 65.11 164.00 L 64.73 164.78 C 63.74 165.82 62.76 166.88 61.79 167.94 L 60.82 167.98 L 59.86 167.97 C 60.16 167.47 60.77 166.47 61.07 165.97 Z" />
</g>
<g id="#07f0f2ff">
<path fill="#07f0f2" opacity="1.00" d=" M 61.79 167.94 C 62.76 166.88 63.74 165.82 64.73 164.78 C 66.95 165.76 69.57 166.02 71.29 167.90 C 68.13 168.00 64.95 167.92 61.79 167.94 Z" />
</g>
<g id="#10c3ddff">
<path fill="#10c3dd" opacity="1.00" d=" M 146.36 169.45 C 151.55 169.46 154.52 163.76 159.95 164.88 C 156.78 168.49 151.57 169.38 147.32 171.31 C 145.11 172.34 146.28 175.26 145.85 177.19 C 141.09 176.53 142.88 170.74 146.36 169.45 Z" />
</g>
<g id="#56e0f5ff">
<path fill="#56e0f5" opacity="1.00" d=" M 48.24 167.16 C 52.46 166.26 56.73 165.66 61.07 165.97 C 60.77 166.47 60.16 167.47 59.86 167.97 C 55.89 167.99 51.93 168.00 47.98 168.01 L 48.24 167.16 Z" />
</g>
<g id="#58c6cbff">
<path fill="#58c6cb" opacity="1.00" d=" M 47.98 168.01 C 51.93 168.00 55.89 167.99 59.86 167.97 L 60.82 167.98 L 61.05 168.99 C 56.59 168.97 52.14 169.00 47.69 168.95 L 47.98 168.01 Z" />
</g>
<g id="#4b7a83ff">
<path fill="#4b7a83" opacity="1.00" d=" M 27.92 168.85 L 28.63 169.08 C 28.78 169.81 29.06 171.28 29.20 172.01 C 34.73 170.93 40.14 168.80 45.87 169.00 L 46.11 169.96 C 39.49 169.74 33.46 173.34 26.98 173.25 C 27.21 171.77 27.52 170.30 27.92 168.85 Z" />
</g>
<g id="#708c8aff">
<path fill="#708c8a" opacity="1.00" d=" M 45.87 169.00 L 46.71 168.96 L 47.69 168.95 C 52.14 169.00 56.59 168.97 61.05 168.99 L 62.07 169.03 L 61.81 170.12 L 60.76 170.22 C 58.11 170.13 55.46 170.08 52.81 170.06 C 50.91 170.00 49.02 169.98 47.13 169.99 L 46.11 169.96 L 45.87 169.00 Z" />
</g>
<g id="#459ea8ff">
<path fill="#459ea8" opacity="1.00" d=" M 62.07 169.03 C 66.65 168.99 71.22 168.99 75.79 168.96 L 75.97 169.97 C 71.25 170.01 66.53 169.92 61.81 170.12 L 62.07 169.03 Z" />
</g>
<g id="#86493bff">
<path fill="#86493b" opacity="1.00" d=" M 26.98 173.25 C 33.46 173.34 39.49 169.74 46.11 169.96 L 47.13 169.99 C 46.06 171.27 44.91 172.48 43.99 173.87 C 41.30 178.78 39.23 184.14 38.72 189.76 C 37.78 191.71 32.32 192.52 35.20 194.79 C 36.86 195.08 38.54 195.15 40.22 195.26 C 29.27 195.41 19.04 199.82 10.40 206.35 C 9.42 207.94 8.61 209.62 7.74 211.28 C 4.51 210.90 6.42 207.07 7.12 204.96 C 8.38 203.24 8.73 201.02 8.81 198.94 C 11.93 188.85 17.46 178.47 26.98 173.25 Z" />
</g>
<g id="#a95c3cff">
<path fill="#a95c3c" opacity="1.00" d=" M 47.13 169.99 C 49.02 169.98 50.91 170.00 52.81 170.06 C 53.07 170.55 53.60 171.54 53.87 172.04 L 54.29 172.84 C 51.90 172.85 49.58 172.28 47.21 172.15 C 43.54 175.18 46.80 181.62 41.95 184.14 C 42.48 180.68 43.96 177.41 43.99 173.87 C 44.91 172.48 46.06 171.27 47.13 169.99 Z" />
</g>
<g id="#8b4838ff">
<path fill="#8b4838" opacity="1.00" d=" M 52.81 170.06 C 55.46 170.08 58.11 170.13 60.76 170.22 C 65.80 171.03 70.92 171.06 76.02 170.98 C 85.26 170.23 94.13 173.87 103.27 173.73 C 105.03 174.05 106.79 174.44 108.54 174.82 C 109.94 175.66 111.37 176.44 112.86 177.12 C 114.42 177.39 117.55 177.93 119.11 178.20 C 116.23 179.02 114.34 180.80 114.75 183.99 C 111.29 184.69 110.36 180.59 107.82 179.17 C 103.14 174.92 96.14 178.67 90.77 176.18 C 87.77 174.63 84.14 176.06 81.01 175.19 C 76.94 173.09 74.77 177.90 71.35 177.80 C 70.75 176.61 70.24 175.38 69.65 174.19 C 67.29 173.31 65.83 175.89 64.10 176.99 C 62.69 176.13 61.21 176.20 59.83 177.07 C 56.48 177.15 57.45 171.49 53.87 172.04 C 53.60 171.54 53.07 170.55 52.81 170.06 Z" />
</g>
<g id="#736062ff">
<path fill="#736062" opacity="1.00" d=" M 60.76 170.22 L 61.81 170.12 C 66.53 169.92 71.25 170.01 75.97 169.97 L 76.02 170.98 C 70.92 171.06 65.80 171.03 60.76 170.22 Z" />
</g>
<g id="#5a8890ff">
<path fill="#5a8890" opacity="1.00" d=" M 75.97 169.97 C 77.28 169.96 78.59 169.94 79.90 169.92 C 81.59 170.02 83.28 170.19 84.96 170.47 C 91.04 171.66 97.35 171.74 103.27 173.73 C 94.13 173.87 85.26 170.23 76.02 170.98 L 75.97 169.97 Z" />
</g>
<g id="#b16843ff">
<path fill="#b16843" opacity="1.00" d=" M 47.21 172.15 C 49.58 172.28 51.90 172.85 54.29 172.84 C 54.88 173.88 55.54 174.90 55.92 176.05 C 54.48 181.83 54.08 187.84 50.80 192.97 C 49.30 193.18 46.29 193.58 44.79 193.78 C 43.49 193.92 42.19 194.07 40.89 194.22 C 40.42 194.11 39.46 193.88 38.99 193.76 C 39.41 190.41 41.05 187.37 41.95 184.14 C 46.80 181.62 43.54 175.18 47.21 172.15 Z" />
</g>
<g id="#955239ff">
<path fill="#955239" opacity="1.00" d=" M 53.87 172.04 C 57.45 171.49 56.48 177.15 59.83 177.07 C 58.33 180.53 57.91 184.29 57.99 188.04 C 61.42 188.63 61.00 183.97 61.86 181.80 C 61.76 184.45 62.81 187.62 60.29 189.31 C 59.04 190.50 57.04 189.21 55.47 189.46 C 54.13 190.91 53.16 193.27 50.80 192.97 C 54.08 187.84 54.48 181.83 55.92 176.05 C 55.54 174.90 54.88 173.88 54.29 172.84 L 53.87 172.04 Z" />
</g>
<g id="#874a3cff">
<path fill="#874a3c" opacity="1.00" d=" M 64.10 176.99 C 65.83 175.89 67.29 173.31 69.65 174.19 C 70.24 175.38 70.75 176.61 71.35 177.80 C 74.77 177.90 76.94 173.09 81.01 175.19 C 84.14 176.06 87.77 174.63 90.77 176.18 C 96.14 178.67 103.14 174.92 107.82 179.17 C 110.36 180.59 111.29 184.69 114.75 183.99 C 114.34 180.80 116.23 179.02 119.11 178.20 C 117.55 177.93 114.42 177.39 112.86 177.12 C 114.33 176.98 115.81 176.83 117.28 176.67 C 123.76 178.94 130.16 181.46 136.78 183.34 C 139.71 184.79 142.79 185.92 145.80 187.21 C 147.57 188.00 149.26 188.94 150.89 189.99 C 153.42 191.49 156.16 192.82 159.14 192.99 C 159.63 195.20 161.97 195.95 163.99 195.91 C 165.26 196.78 166.54 197.65 167.90 198.39 C 170.07 199.68 172.25 201.04 174.10 202.78 C 175.82 204.50 177.56 206.44 180.02 207.06 C 181.78 209.00 183.43 211.12 185.95 212.14 C 186.18 212.40 186.65 212.92 186.89 213.18 C 186.90 215.07 188.34 216.56 190.19 216.78 C 192.19 219.09 193.79 221.71 195.60 224.17 C 196.41 225.87 197.22 227.58 197.94 229.32 C 198.14 230.50 198.83 231.22 200.02 231.46 C 200.06 231.80 200.14 232.49 200.18 232.83 C 200.84 239.65 200.59 246.43 200.22 253.26 C 198.86 257.14 196.91 260.78 195.16 264.49 C 194.50 261.89 194.32 259.22 193.29 256.76 C 190.29 252.31 189.07 246.65 185.23 242.84 C 183.97 240.47 182.01 238.66 180.10 236.83 C 166.79 225.27 150.47 218.08 134.89 210.15 C 125.68 205.71 115.67 203.52 106.15 199.95 C 103.23 198.50 99.98 197.69 96.73 198.31 C 95.10 197.99 93.47 197.60 91.97 196.87 C 89.83 195.44 87.55 195.13 85.14 195.95 C 81.38 195.28 77.60 194.98 73.78 195.06 L 72.97 194.92 C 70.74 193.30 68.41 193.06 65.97 194.20 C 61.38 194.08 56.79 193.92 52.22 194.21 C 50.36 194.10 46.65 193.89 44.79 193.78 C 46.29 193.58 49.30 193.18 50.80 192.97 C 53.16 193.27 54.13 190.91 55.47 189.46 C 57.04 189.21 59.04 190.50 60.29 189.31 C 62.81 187.62 61.76 184.45 61.86 181.80 C 62.32 180.08 63.24 178.53 64.10 176.99 Z" />
</g>
<g id="#538084ff">
<path fill="#538084" opacity="1.00" d=" M 108.54 174.82 C 111.58 174.43 114.49 175.63 117.28 176.67 C 115.81 176.83 114.33 176.98 112.86 177.12 C 111.37 176.44 109.94 175.66 108.54 174.82 Z" />
</g>
<g id="#a06043ff">
<path fill="#a06043" opacity="1.00" d=" M 59.83 177.07 C 61.21 176.20 62.69 176.13 64.10 176.99 C 63.24 178.53 62.32 180.08 61.86 181.80 C 61.00 183.97 61.42 188.63 57.99 188.04 C 57.91 184.29 58.33 180.53 59.83 177.07 Z" />
</g>
<g id="#0f9abaff">
<path fill="#0f9aba" opacity="1.00" d=" M 170.99 190.11 C 170.77 185.50 172.78 181.24 173.98 176.90 C 173.68 181.36 173.18 186.11 170.99 190.11 Z" />
</g>
<g id="#517f82ff">
<path fill="#517f82" opacity="1.00" d=" M 150.89 189.99 C 154.01 189.69 156.77 191.11 159.14 192.99 C 156.16 192.82 153.42 191.49 150.89 189.99 Z" />
</g>
<g id="#3a6064ff">
<path fill="#3a6064" opacity="1.00" d=" M 209.03 198.14 C 209.03 195.27 209.68 192.43 210.95 189.86 C 211.21 192.78 210.66 195.67 209.03 198.14 Z" />
</g>
<g id="#4a827eff">
<path fill="#4a827e" opacity="1.00" d=" M 159.14 192.99 C 161.13 193.11 163.21 193.93 163.99 195.91 C 161.97 195.95 159.63 195.20 159.14 192.99 Z" />
</g>
<g id="#723528ff">
<path fill="#723528" opacity="1.00" d=" M 40.89 194.22 C 42.19 194.07 43.49 193.92 44.79 193.78 C 46.65 193.89 50.36 194.10 52.22 194.21 C 48.54 194.67 44.84 194.99 41.14 195.18 L 40.89 194.22 Z" />
</g>
<g id="#4f1a18ff">
<path fill="#4f1a18" opacity="1.00" d=" M 52.22 194.21 C 56.79 193.92 61.38 194.08 65.97 194.20 C 68.20 195.60 70.53 195.84 72.97 194.92 L 73.78 195.06 C 77.53 195.81 81.31 196.11 85.14 195.95 C 87.17 197.67 89.45 197.97 91.97 196.87 C 93.47 197.60 95.10 197.99 96.73 198.31 C 99.77 199.32 102.91 200.14 106.15 199.95 C 115.67 203.52 125.68 205.71 134.89 210.15 C 150.47 218.08 166.79 225.27 180.10 236.83 C 180.51 239.79 183.03 241.23 185.23 242.84 C 189.07 246.65 190.29 252.31 193.29 256.76 C 193.14 259.51 192.94 262.27 192.67 265.03 C 191.66 267.21 190.21 269.31 190.44 271.83 C 188.32 273.52 183.75 276.49 182.81 272.13 C 183.09 271.85 183.66 271.29 183.95 271.01 C 184.42 270.66 185.35 269.98 185.82 269.64 C 185.61 265.11 187.62 259.59 184.15 255.85 C 180.50 250.89 176.90 245.89 172.97 241.15 C 169.12 237.21 165.64 232.12 159.93 230.90 C 153.18 225.84 144.73 224.11 137.98 219.04 C 126.05 215.07 114.94 208.50 102.40 206.45 C 96.76 204.83 90.86 204.42 85.19 202.93 C 73.77 200.53 61.97 199.53 50.41 199.55 C 40.01 202.40 27.46 201.92 19.75 210.84 C 17.86 212.59 16.48 214.78 14.80 216.72 C 13.13 218.05 12.25 220.18 10.18 221.07 C 9.81 217.65 9.92 214.10 7.74 211.28 C 8.61 209.62 9.42 207.94 10.40 206.35 C 19.04 199.82 29.27 195.41 40.22 195.26 L 41.14 195.18 C 44.84 194.99 48.54 194.67 52.22 194.21 Z" />
</g>
<g id="#662d26ff">
<path fill="#662d26" opacity="1.00" d=" M 65.97 194.20 C 68.41 193.06 70.74 193.30 72.97 194.92 C 70.53 195.84 68.20 195.60 65.97 194.20 Z" />
</g>
<g id="#6b312cff">
<path fill="#6b312c" opacity="1.00" d=" M 73.78 195.06 C 77.60 194.98 81.38 195.28 85.14 195.95 C 81.31 196.11 77.53 195.81 73.78 195.06 Z" />
</g>
<g id="#6d3430ff">
<path fill="#6d3430" opacity="1.00" d=" M 85.14 195.95 C 87.55 195.13 89.83 195.44 91.97 196.87 C 89.45 197.97 87.17 197.67 85.14 195.95 Z" />
</g>
<g id="#74382fff">
<path fill="#74382f" opacity="1.00" d=" M 96.73 198.31 C 99.98 197.69 103.23 198.50 106.15 199.95 C 102.91 200.14 99.77 199.32 96.73 198.31 Z" />
</g>
<g id="#725b4cff">
<path fill="#725b4c" opacity="1.00" d=" M 1.13 207.24 C 0.77 204.27 1.45 201.39 2.72 198.72 C 3.32 201.71 2.62 204.63 1.13 207.24 Z" />
</g>
<g id="#663c2cff">
<path fill="#663c2c" opacity="1.00" d=" M 7.12 204.96 C 6.64 202.78 6.26 199.93 8.81 198.94 C 8.73 201.02 8.38 203.24 7.12 204.96 Z" />
</g>
<g id="#5b261dff">
<path fill="#5b261d" opacity="1.00" d=" M 50.41 199.55 C 61.97 199.53 73.77 200.53 85.19 202.93 C 73.80 204.65 62.70 198.47 51.40 201.53 C 48.72 203.69 45.30 201.63 42.36 202.41 C 40.72 203.79 38.98 205.64 36.66 204.44 C 33.62 202.91 31.61 206.60 28.69 206.39 C 26.55 205.90 26.00 208.57 24.66 209.68 C 23.07 210.22 21.41 210.55 19.75 210.84 C 27.46 201.92 40.01 202.40 50.41 199.55 Z" />
</g>
<g id="#672f22ff">
<path fill="#672f22" opacity="1.00" d=" M 51.40 201.53 C 62.70 198.47 73.80 204.65 85.19 202.93 C 90.86 204.42 96.76 204.83 102.40 206.45 C 114.94 208.50 126.05 215.07 137.98 219.04 C 144.73 224.11 153.18 225.84 159.93 230.90 C 160.81 233.31 162.74 234.85 164.89 236.14 C 167.71 237.66 169.46 241.12 172.97 241.15 C 176.90 245.89 180.50 250.89 184.15 255.85 C 184.05 260.89 184.06 265.96 183.95 271.01 C 183.66 271.29 183.09 271.85 182.81 272.13 C 175.32 280.28 167.69 288.39 157.84 293.75 C 154.80 294.78 152.41 296.90 150.17 299.11 C 146.27 299.80 142.21 299.97 138.55 301.56 C 137.09 303.28 135.17 305.31 132.68 304.47 C 128.33 304.32 123.99 305.89 119.81 306.85 C 113.11 309.23 105.87 307.45 98.97 307.13 C 92.02 307.43 85.62 303.33 78.67 304.28 C 75.48 302.85 72.17 301.75 68.71 301.19 C 59.57 295.99 49.58 292.48 41.59 285.41 C 37.37 280.30 31.52 276.83 28.08 271.04 C 26.74 269.01 25.25 266.80 25.65 264.14 C 24.13 260.02 22.20 255.91 19.06 252.77 C 18.29 250.50 17.75 248.15 17.60 245.76 C 18.83 246.09 20.06 246.44 21.29 246.81 C 21.19 247.30 20.98 248.29 20.88 248.78 C 20.33 250.10 20.34 251.45 21.34 252.56 C 28.00 255.56 35.02 257.59 41.79 260.32 C 46.48 262.04 50.63 265.77 56.01 265.02 C 61.97 265.70 67.63 263.50 73.41 262.58 C 77.94 262.57 82.01 260.65 86.13 259.08 C 93.68 256.51 102.30 256.61 109.08 252.17 C 113.27 250.69 118.08 249.58 121.05 246.03 C 130.17 243.78 138.58 238.63 144.15 231.00 C 143.06 229.00 141.15 227.50 138.96 226.89 C 131.75 221.24 123.02 218.13 114.30 215.70 C 103.90 210.92 92.37 209.84 81.24 207.73 C 77.88 206.52 74.33 206.15 70.76 206.21 C 69.59 206.04 68.41 205.89 67.23 205.74 C 60.18 204.97 52.67 204.07 45.74 205.87 C 43.11 205.00 40.83 205.30 38.89 206.76 C 37.66 207.21 36.45 207.69 35.22 208.13 C 32.30 208.23 29.25 209.23 27.06 211.16 C 26.71 211.54 26.03 212.31 25.68 212.69 C 23.27 213.83 21.09 215.38 18.85 216.83 C 15.77 217.35 16.02 221.96 15.95 224.02 C 15.58 227.70 15.10 231.37 14.76 235.06 L 13.87 234.66 C 14.08 228.67 14.50 222.70 14.80 216.72 C 16.48 214.78 17.86 212.59 19.75 210.84 C 21.41 210.55 23.07 210.22 24.66 209.68 C 26.00 208.57 26.55 205.90 28.69 206.39 C 31.61 206.60 33.62 202.91 36.66 204.44 C 38.98 205.64 40.72 203.79 42.36 202.41 C 45.30 201.63 48.72 203.69 51.40 201.53 Z" />
</g>
<g id="#3e6c79ff">
<path fill="#3e6c79" opacity="1.00" d=" M 174.10 202.78 C 176.89 202.75 178.60 204.97 180.02 207.06 C 177.56 206.44 175.82 204.50 174.10 202.78 Z" />
</g>
<g id="#7d3d28ff">
<path fill="#7d3d28" opacity="1.00" d=" M 45.74 205.87 C 52.67 204.07 60.18 204.97 67.23 205.74 C 60.07 205.93 52.90 206.18 45.74 205.87 Z" />
</g>
<g id="#81412bff">
<path fill="#81412b" opacity="1.00" d=" M 38.89 206.76 C 40.83 205.30 43.11 205.00 45.74 205.87 L 45.87 206.79 C 44.12 206.78 40.63 206.77 38.89 206.76 Z" />
</g>
<g id="#a15c3eff">
<path fill="#a15c3e" opacity="1.00" d=" M 45.74 205.87 C 52.90 206.18 60.07 205.93 67.23 205.74 C 68.41 205.89 69.59 206.04 70.76 206.21 C 73.99 208.00 77.67 207.79 81.24 207.73 C 92.37 209.84 103.90 210.92 114.30 215.70 C 123.02 218.13 131.75 221.24 138.96 226.89 C 140.00 228.27 141.16 229.58 142.09 231.04 C 138.32 235.67 133.51 240.37 127.39 241.53 C 125.23 242.96 123.14 244.49 121.05 246.03 C 117.46 246.62 114.50 248.81 111.16 250.08 C 103.21 252.19 94.98 251.05 86.97 252.82 C 81.40 251.56 77.42 256.59 72.00 255.94 C 65.57 255.48 58.55 257.57 52.49 254.73 C 46.83 253.30 41.06 252.49 35.29 251.70 C 33.45 249.86 31.90 247.70 29.67 246.28 C 26.75 246.03 23.83 246.01 20.91 246.01 C 19.37 243.23 17.81 240.45 16.36 237.63 C 15.30 230.60 17.50 223.65 18.85 216.83 C 21.09 215.38 23.27 213.83 25.68 212.69 C 23.41 216.84 29.34 214.61 31.98 215.09 C 31.93 218.35 31.11 221.53 31.12 224.80 C 32.92 226.55 35.02 228.13 37.96 227.24 C 38.21 228.94 38.24 232.46 35.61 231.59 C 31.19 233.46 30.61 229.68 29.59 227.20 C 27.86 226.75 25.32 226.65 25.04 228.94 C 25.63 230.02 26.38 231.00 27.00 232.07 C 25.90 233.54 24.28 234.54 23.34 236.15 C 23.91 238.10 23.52 241.32 25.89 241.99 C 28.24 239.42 27.09 233.18 33.04 235.98 C 41.01 233.08 41.92 244.20 48.83 244.98 C 50.02 243.66 49.88 241.81 50.28 240.19 C 51.48 240.36 52.65 240.65 53.85 240.82 C 55.22 239.08 53.87 234.63 56.81 235.08 C 58.21 237.53 55.66 244.98 59.85 243.89 C 61.51 242.56 61.34 235.92 63.66 239.33 C 60.24 244.49 65.54 245.08 66.81 242.75 C 66.89 240.11 67.05 234.82 67.13 232.18 C 68.89 230.93 71.57 230.78 72.56 228.65 C 73.11 225.24 74.80 222.25 75.90 219.03 C 74.45 218.23 72.79 218.05 71.23 217.61 C 69.99 215.65 71.06 213.38 70.84 211.26 C 69.30 210.04 67.65 208.97 66.01 207.88 C 59.54 206.19 52.57 207.41 45.87 206.79 L 45.74 205.87 Z" />
</g>
<g id="#834532ff">
<path fill="#834532" opacity="1.00" d=" M 70.76 206.21 C 74.33 206.15 77.88 206.52 81.24 207.73 C 77.67 207.79 73.99 208.00 70.76 206.21 Z" />
</g>
<g id="#a76040ff">
<path fill="#a76040" opacity="1.00" d=" M 35.22 208.13 C 36.45 207.69 37.66 207.21 38.89 206.76 C 40.63 206.77 44.12 206.78 45.87 206.79 C 52.57 207.41 59.54 206.19 66.01 207.88 C 54.97 208.65 42.72 205.88 32.79 212.13 C 34.10 213.86 36.02 214.93 37.75 216.19 C 34.02 219.45 39.45 221.74 39.53 225.37 C 39.70 229.92 39.81 237.30 44.92 239.09 C 46.75 236.73 48.48 234.19 51.77 235.79 C 52.13 230.93 54.10 226.44 56.20 222.12 C 58.83 222.24 59.71 226.07 61.42 227.84 C 65.63 224.55 66.44 218.43 68.85 213.87 C 69.38 211.26 65.11 210.90 66.01 207.88 C 67.65 208.97 69.30 210.04 70.84 211.26 C 71.06 213.38 69.99 215.65 71.23 217.61 C 72.79 218.05 74.45 218.23 75.90 219.03 C 74.80 222.25 73.11 225.24 72.56 228.65 C 71.57 230.78 68.89 230.93 67.13 232.18 C 67.05 234.82 66.89 240.11 66.81 242.75 C 65.54 245.08 60.24 244.49 63.66 239.33 C 61.34 235.92 61.51 242.56 59.85 243.89 C 55.66 244.98 58.21 237.53 56.81 235.08 C 53.87 234.63 55.22 239.08 53.85 240.82 C 52.65 240.65 51.48 240.36 50.28 240.19 C 49.88 241.81 50.02 243.66 48.83 244.98 C 41.92 244.20 41.01 233.08 33.04 235.98 C 27.09 233.18 28.24 239.42 25.89 241.99 C 23.52 241.32 23.91 238.10 23.34 236.15 C 24.28 234.54 25.90 233.54 27.00 232.07 C 26.38 231.00 25.63 230.02 25.04 228.94 C 25.32 226.65 27.86 226.75 29.59 227.20 C 30.61 229.68 31.19 233.46 35.61 231.59 C 38.24 232.46 38.21 228.94 37.96 227.24 C 35.02 228.13 32.92 226.55 31.12 224.80 C 31.11 221.53 31.93 218.35 31.98 215.09 C 29.34 214.61 23.41 216.84 25.68 212.69 C 26.03 212.31 26.71 211.54 27.06 211.16 C 30.09 211.18 32.77 209.79 35.22 208.13 Z" />
</g>
<g id="#406d70ff">
<path fill="#406d70" opacity="1.00" d=" M 180.02 207.06 C 182.78 207.71 184.26 210.09 185.95 212.14 C 183.43 211.12 181.78 209.00 180.02 207.06 Z" />
</g>
<g id="#86705dff">
<path fill="#86705d" opacity="1.00" d=" M 0.00 207.94 L 0.99 208.13 C 1.00 211.09 1.05 214.02 1.12 216.99 L 0.00 217.03 L 0.00 207.94 Z" />
</g>
<g id="#803e27ff">
<path fill="#803e27" opacity="1.00" d=" M 27.06 211.16 C 29.25 209.23 32.30 208.23 35.22 208.13 C 32.77 209.79 30.09 211.18 27.06 211.16 Z" />
</g>
<g id="#b36942ff">
<path fill="#b36942" opacity="1.00" d=" M 32.79 212.13 C 42.72 205.88 54.97 208.65 66.01 207.88 C 65.11 210.90 69.38 211.26 68.85 213.87 C 66.44 218.43 65.63 224.55 61.42 227.84 C 59.71 226.07 58.83 222.24 56.20 222.12 C 54.10 226.44 52.13 230.93 51.77 235.79 C 48.48 234.19 46.75 236.73 44.92 239.09 C 39.81 237.30 39.70 229.92 39.53 225.37 C 39.45 221.74 34.02 219.45 37.75 216.19 C 36.02 214.93 34.10 213.86 32.79 212.13 Z" />
</g>
<g id="#32737aff">
<path fill="#32737a" opacity="1.00" d=" M 203.29 218.23 C 203.78 214.70 204.18 211.01 205.96 207.86 C 205.46 211.40 204.75 214.93 203.29 218.23 Z" />
</g>
<g id="#0d9dc4ff">
<path fill="#0d9dc4" opacity="1.00" d=" M 198.03 219.10 C 197.55 215.66 198.77 212.46 201.02 209.89 C 200.55 213.14 199.55 216.22 198.03 219.10 Z" />
</g>
<g id="#436c68ff">
<path fill="#436c68" opacity="1.00" d=" M 186.89 213.18 C 188.89 213.32 190.71 214.53 190.19 216.78 C 188.34 216.56 186.90 215.07 186.89 213.18 Z" />
</g>
<g id="#715c4dff">
<path fill="#715c4d" opacity="1.00" d=" M 1.12 216.99 C 2.40 218.71 3.41 220.84 2.77 223.03 C 1.00 221.51 0.42 219.21 1.12 216.99 Z" />
</g>
<g id="#814531ff">
<path fill="#814531" opacity="1.00" d=" M 15.95 224.02 C 16.02 221.96 15.77 217.35 18.85 216.83 C 17.50 223.65 15.30 230.60 16.36 237.63 C 17.81 240.45 19.37 243.23 20.91 246.01 L 21.29 246.81 C 20.06 246.44 18.83 246.09 17.60 245.76 C 16.52 242.22 15.53 238.67 14.76 235.06 C 15.10 231.37 15.58 227.70 15.95 224.02 Z" />
</g>
<g id="#52382aff">
<path fill="#52382a" opacity="1.00" d=" M 7.03 227.32 C 8.57 226.41 10.11 224.02 11.81 226.00 C 10.72 227.85 9.80 229.81 9.85 232.02 L 9.21 231.93 C 8.59 230.34 7.86 228.80 7.03 227.32 Z" />
</g>
<g id="#834730ff">
<path fill="#834730" opacity="1.00" d=" M 138.96 226.89 C 141.15 227.50 143.06 229.00 144.15 231.00 C 138.58 238.63 130.17 243.78 121.05 246.03 C 123.14 244.49 125.23 242.96 127.39 241.53 C 133.51 240.37 138.32 235.67 142.09 231.04 C 141.16 229.58 140.00 228.27 138.96 226.89 Z" />
</g>
<g id="#3e7579ff">
<path fill="#3e7579" opacity="1.00" d=" M 197.94 229.32 C 199.64 229.93 200.12 228.12 200.84 227.01 C 201.17 228.48 201.64 230.53 200.02 231.46 C 198.83 231.22 198.14 230.50 197.94 229.32 Z" />
</g>
<g id="#59251eff">
<path fill="#59251e" opacity="1.00" d=" M 159.93 230.90 C 165.64 232.12 169.12 237.21 172.97 241.15 C 169.46 241.12 167.71 237.66 164.89 236.14 C 162.74 234.85 160.81 233.31 159.93 230.90 Z" />
</g>
<g id="#725d4eff">
<path fill="#725d4e" opacity="1.00" d=" M 9.21 231.93 L 9.85 232.02 C 9.86 233.81 9.87 237.41 9.88 239.20 C 8.19 237.21 7.97 234.79 9.21 231.93 Z" />
</g>
<g id="#5d3728ff">
<path fill="#5d3728" opacity="1.00" d=" M 200.18 232.83 C 203.53 239.07 202.41 246.77 200.22 253.26 C 200.59 246.43 200.84 239.65 200.18 232.83 Z" />
</g>
<g id="#683029ff">
<path fill="#683029" opacity="1.00" d=" M 180.10 236.83 C 182.01 238.66 183.97 240.47 185.23 242.84 C 183.03 241.23 180.51 239.79 180.10 236.83 Z" />
</g>
<g id="#945339ff">
<path fill="#945339" opacity="1.00" d=" M 20.91 246.01 C 23.83 246.01 26.75 246.03 29.67 246.28 C 31.90 247.70 33.45 249.86 35.29 251.70 C 41.06 252.49 46.83 253.30 52.49 254.73 C 58.55 257.57 65.57 255.48 72.00 255.94 C 77.42 256.59 81.40 251.56 86.97 252.82 C 94.98 251.05 103.21 252.19 111.16 250.08 C 110.46 250.77 109.76 251.46 109.08 252.17 C 105.25 252.49 101.37 252.63 97.61 253.51 C 92.60 252.13 92.34 259.71 86.97 257.03 C 69.38 259.57 50.10 261.90 33.73 253.44 C 28.96 252.30 24.54 250.53 21.29 246.81 L 20.91 246.01 Z" />
</g>
<g id="#83452fff">
<path fill="#83452f" opacity="1.00" d=" M 111.16 250.08 C 114.50 248.81 117.46 246.62 121.05 246.03 C 118.08 249.58 113.27 250.69 109.08 252.17 C 109.76 251.46 110.46 250.77 111.16 250.08 Z" />
</g>
<g id="#83462fff">
<path fill="#83462f" opacity="1.00" d=" M 21.29 246.81 C 24.54 250.53 28.96 252.30 33.73 253.44 C 50.10 261.90 69.38 259.57 86.97 257.03 C 92.34 259.71 92.60 252.13 97.61 253.51 C 101.37 252.63 105.25 252.49 109.08 252.17 C 102.30 256.61 93.68 256.51 86.13 259.08 C 70.81 260.95 54.77 263.10 39.83 258.10 C 34.00 253.92 24.94 255.26 20.88 248.78 C 20.98 248.29 21.19 247.30 21.29 246.81 Z" />
</g>
<g id="#733827ff">
<path fill="#733827" opacity="1.00" d=" M 20.88 248.78 C 24.94 255.26 34.00 253.92 39.83 258.10 C 54.77 263.10 70.81 260.95 86.13 259.08 C 82.01 260.65 77.94 262.57 73.41 262.58 C 67.63 263.50 61.97 265.70 56.01 265.02 C 50.63 265.77 46.48 262.04 41.79 260.32 C 35.02 257.59 28.00 255.56 21.34 252.56 C 20.34 251.45 20.33 250.10 20.88 248.78 Z" />
</g>
<g id="#592c1fff">
<path fill="#592c1f" opacity="1.00" d=" M 19.06 252.77 C 22.20 255.91 24.13 260.02 25.65 264.14 C 25.25 266.80 26.74 269.01 28.08 271.04 C 24.84 270.89 24.52 267.11 23.31 264.83 C 22.26 260.65 18.61 257.29 19.06 252.77 Z" />
<path fill="#592c1f" opacity="1.00" d=" M 138.55 301.56 C 142.21 299.97 146.27 299.80 150.17 299.11 C 149.64 299.93 149.10 300.73 148.55 301.53 C 144.24 302.68 140.03 304.16 135.87 305.77 C 121.84 309.55 107.03 309.87 92.68 308.28 C 88.10 306.62 82.62 307.34 78.67 304.28 C 85.62 303.33 92.02 307.43 98.97 307.13 C 105.87 307.45 113.11 309.23 119.81 306.85 C 123.99 305.89 128.33 304.32 132.68 304.47 C 135.17 305.31 137.09 303.28 138.55 301.56 Z" />
</g>
<g id="#5c231eff">
<path fill="#5c231e" opacity="1.00" d=" M 184.15 255.85 C 187.62 259.59 185.61 265.11 185.82 269.64 C 185.35 269.98 184.42 270.66 183.95 271.01 C 184.06 265.96 184.05 260.89 184.15 255.85 Z" />
</g>
<g id="#6d392dff">
<path fill="#6d392d" opacity="1.00" d=" M 193.29 256.76 C 194.32 259.22 194.50 261.89 195.16 264.49 C 195.17 266.55 193.83 265.78 192.67 265.03 C 192.94 262.27 193.14 259.51 193.29 256.76 Z" />
</g>
<g id="#816b57ff">
<path fill="#816b57" opacity="1.00" d=" M 87.73 312.26 C 91.32 311.74 94.81 312.68 98.20 313.81 C 94.63 313.83 91.09 313.48 87.73 312.26 Z" />
</g>
<g id="#9c8873ff">
<path fill="#9c8873" opacity="1.00" d=" M 100.97 314.02 C 105.98 314.00 110.99 313.99 116.01 314.04 L 115.99 315.00 L 101.04 315.00 L 100.97 314.02 Z" />
</g>
</svg>
